<?xml version="1.0" encoding="UTF-8" standalone="no"?>
<svg
   xmlns:dc="http://purl.org/dc/elements/1.1/"
   xmlns:cc="http://creativecommons.org/ns#"
   xmlns:rdf="http://www.w3.org/1999/02/22-rdf-syntax-ns#"
   xmlns:svg="http://www.w3.org/2000/svg"
   xmlns="http://www.w3.org/2000/svg"
   viewBox="0 0 380 379.99999"
   height="380"
   width="380"
   xml:space="preserve"
   id="svg2"
   version="1.1"><metadata
     id="metadata8"><rdf:RDF><cc:Work
         rdf:about=""><dc:format>image/svg+xml</dc:format><dc:type
           rdf:resource="http://purl.org/dc/dcmitype/StillImage" /><dc:title></dc:title></cc:Work></rdf:RDF></metadata><defs
     id="defs6"><clipPath
       id="clipPath18"
       clipPathUnits="userSpaceOnUse"><path
         id="path16"
         d="M 0,841.89 H 595.28 V 0 H 0 Z" /></clipPath><clipPath
       id="clipPath58"
       clipPathUnits="userSpaceOnUse"><path
         id="path56"
         d="M 0,841.89 H 595.28 V 0 H 0 Z" /></clipPath><clipPath
       id="clipPath74"
       clipPathUnits="userSpaceOnUse"><path
         id="path72"
         d="M 95.1528,539.755 H 446.535 V 453.046 H 95.1528 Z" /></clipPath><clipPath
       id="clipPath78"
       clipPathUnits="userSpaceOnUse"><path
         id="path76"
         d="m 95.153,453.046 h 351.382 v 86.709 H 95.153 Z" /></clipPath><clipPath
       id="clipPath82"
       clipPathUnits="userSpaceOnUse"><path
         id="path80"
         d="M -32768,32767 H 32767 V -32768 H -32768 Z" /></clipPath><linearGradient
       id="linearGradient90"
       spreadMethod="pad"
       gradientTransform="matrix(351.38239,0,0,-351.38239,95.152801,496.4003)"
       gradientUnits="userSpaceOnUse"
       y2="0"
       x2="1"
       y1="0"
       x1="0"><stop
         id="stop84"
         offset="0"
         style="stop-opacity:0;stop-color:#ffffff" /><stop
         id="stop86"
         offset="0.0052356"
         style="stop-opacity:0;stop-color:#ffffff" /><stop
         id="stop88"
         offset="1"
         style="stop-opacity:1;stop-color:#ffffff" /></linearGradient><mask
       id="mask92"
       height="1"
       width="1"
       y="0"
       x="0"
       maskUnits="userSpaceOnUse"><g
         id="g102"><g
           id="g100"
           clip-path="url(#clipPath82)"><g
             id="g98"><g
               id="g96"><path
                 id="path94"
                 style="fill:url(#linearGradient90);stroke:none"
                 d="M -32768,32767 H 32767 V -32768 H -32768 Z" /></g></g></g></g></mask><linearGradient
       id="linearGradient110"
       spreadMethod="pad"
       gradientTransform="matrix(351.38239,0,0,-351.38239,95.152801,496.4003)"
       gradientUnits="userSpaceOnUse"
       y2="0"
       x2="1"
       y1="0"
       x1="0"><stop
         id="stop104"
         offset="0"
         style="stop-opacity:1;stop-color:#ffffff" /><stop
         id="stop106"
         offset="0.0052356"
         style="stop-opacity:1;stop-color:#ffffff" /><stop
         id="stop108"
         offset="1"
         style="stop-opacity:1;stop-color:#3abff0" /></linearGradient></defs><g
     transform="matrix(1.3333333,0,0,-1.3333333,0,379.99998)"
     id="g10"><g
       transform="translate(9.9331327,0.27369883)"
       id="g3935"><text
         transform="scale(1,-1)"
         style="font-variant:normal;font-weight:bold;font-stretch:normal;font-size:163.08000183px;font-family:'Century Gothic';-inkscape-font-specification:CenturyGothic-Bold;writing-mode:lr-tb;fill:#004563;fill-opacity:1;fill-rule:nonzero;stroke:none"
         id="text38"
         x="66.986763"
         y="-83.760773"><tspan
           x="66.986763"
           y="-83.760773"
           id="tspan36">G</tspan></text>
<g
         id="g134"
         transform="translate(31.168966,105.73287)"><path
           d="M 0,0 C 10.873,10.375 28.094,9.969 38.468,-0.904 48.842,-11.774 48.437,-29 37.565,-39.374 26.693,-49.745 9.468,-49.341 -0.906,-38.468 -11.277,-27.595 -10.873,-10.373 0,0"
           style="fill:#004563;fill-opacity:1;fill-rule:nonzero;stroke:none"
           id="path136" /></g><g
         id="g138"
         transform="translate(45.086866,54.54447)"><path
           d="m 0,0 c 0,0 23.969,-3.656 34.543,22.216 0,0 27.327,-72.986 86.27,-43.614 0,0 -64.789,-51.401 -120.813,21.398"
           style="fill:#004563;fill-opacity:1;fill-rule:nonzero;stroke:none"
           id="path140" /></g><g
         id="g142"
         transform="translate(21.127466,97.50297)"><path
           d="m 0,0 c 0,0 7.742,22.979 35.582,20.514 0,0 -52.334,57.748 0.796,96.661 C 36.378,117.175 -39.009,83.169 0,0"
           style="fill:#004563;fill-opacity:1;fill-rule:nonzero;stroke:none"
           id="path144" /></g><g
         id="g146"
         transform="translate(183.23927,239.33057)"><path
           d="m 0,0 c -1.826,-12.188 -13.186,-20.588 -25.374,-18.763 -12.188,1.826 -20.59,13.185 -18.762,25.374 1.823,12.187 13.185,20.59 25.374,18.764 C -6.575,23.552 1.827,12.19 0,0"
           style="fill:#0084b2;fill-opacity:1;fill-rule:nonzero;stroke:none"
           id="path148" /></g><g
         id="g150"
         transform="translate(148.47607,265.48927)"><path
           d="m 0,0 c 0,0 -17.368,-9.688 -11.205,-31.765 0,0 -54.412,33.532 -77.817,-15.142 0,0 16.111,65.885 89.022,46.907"
           style="fill:#0084b2;fill-opacity:1;fill-rule:nonzero;stroke:none"
           id="path152" /></g><g
         id="g154"
         transform="translate(185.60347,249.71237)"><path
           d="m 0,0 c 0,0 6.543,-18.778 -12.73,-31.186 0,0 62.946,-11.084 48.103,-63.014 0,0 31.731,59.949 -35.373,94.2"
           style="fill:#0084b2;fill-opacity:1;fill-rule:nonzero;stroke:none"
           id="path156" /></g><g
         id="g158"
         transform="translate(232.35347,60.69527)"><path
           d="m 0,0 c -8.37,1.73 -13.749,9.917 -12.02,18.286 1.73,8.371 9.917,13.749 18.288,12.018 8.368,-1.73 13.749,-9.919 12.018,-18.285 C 16.554,3.65 8.364,-1.73 0,0"
           style="fill:#3bbff0;fill-opacity:1;fill-rule:nonzero;stroke:none"
           id="path160" /></g><g
         id="g162"
         transform="translate(251.79397,83.75927)"><path
           d="m 0,0 c 0,0 -6.042,12.396 -21.561,8.977 0,0 25.3,36.384 -7.5,54.456 0,0 44.996,-13.682 29.061,-63.433"
           style="fill:#3bbff0;fill-opacity:1;fill-rule:nonzero;stroke:none"
           id="path164" /></g><g
         id="g166"
         transform="translate(239.44827,58.66117)"><path
           d="m 0,0 c 0,0 -13.251,-3.811 -21.102,10.008 0,0 -10.086,-43.153 -45.473,-30.887 0,0 40.291,-24.266 66.575,20.879"
           style="fill:#3bbff0;fill-opacity:1;fill-rule:nonzero;stroke:none"
           id="path168" /></g></g></g></svg>