<?xml version="1.0" encoding="UTF-8" standalone="no"?>
<svg
   xmlns:dc="http://purl.org/dc/elements/1.1/"
   xmlns:cc="http://creativecommons.org/ns#"
   xmlns:rdf="http://www.w3.org/1999/02/22-rdf-syntax-ns#"
   xmlns:svg="http://www.w3.org/2000/svg"
   xmlns="http://www.w3.org/2000/svg"
   xmlns:sodipodi="http://sodipodi.sourceforge.net/DTD/sodipodi-0.dtd"
   xmlns:inkscape="http://www.inkscape.org/namespaces/inkscape"
   viewBox="0 0 1150 379.99998"
   height="380"
   width="1150"
   xml:space="preserve"
   version="1.1"
   id="svg2"
   inkscape:version="0.92.1 r15371"
   sodipodi:docname="logo.svg"><sodipodi:namedview
     pagecolor="#ffffff"
     bordercolor="#666666"
     borderopacity="1"
     objecttolerance="10"
     gridtolerance="10"
     guidetolerance="10"
     inkscape:pageopacity="0"
     inkscape:pageshadow="2"
     inkscape:window-width="1440"
     inkscape:window-height="836"
     id="namedview58"
     showgrid="false"
     inkscape:zoom="0.49667395"
     inkscape:cx="379.71096"
     inkscape:cy="215.61668"
     inkscape:window-x="0"
     inkscape:window-y="27"
     inkscape:window-maximized="1"
     inkscape:current-layer="text40" /><metadata
     id="metadata8"><rdf:RDF><cc:Work
         rdf:about=""><dc:format>image/svg+xml</dc:format><dc:type
           rdf:resource="http://purl.org/dc/dcmitype/StillImage" /><dc:title /></cc:Work></rdf:RDF></metadata><defs
     id="defs6"><clipPath
       id="clipPath16"
       clipPathUnits="userSpaceOnUse"><path
         id="path18"
         d="m 0,841.89 595.28,0 L 595.28,0 0,0 0,841.89 Z" /></clipPath><clipPath
       id="clipPath56"
       clipPathUnits="userSpaceOnUse"><path
         id="path58"
         d="m 0,841.89 595.28,0 L 595.28,0 0,0 0,841.89 Z" /></clipPath><clipPath
       id="clipPath72"
       clipPathUnits="userSpaceOnUse"><path
         id="path74"
         d="m 95.1528,539.755 351.3822,0 0,-86.709 -351.3822,0 0,86.709 z" /></clipPath><clipPath
       id="clipPath76"
       clipPathUnits="userSpaceOnUse"><path
         id="path78"
         d="m 95.153,453.046 351.382,0 0,86.709 -351.382,0 0,-86.709 z" /></clipPath><linearGradient
       id="linearGradient84"
       spreadMethod="pad"
       gradientTransform="matrix(351.38239,0,0,-351.38239,95.152801,496.4003)"
       gradientUnits="userSpaceOnUse"
       y2="0"
       x2="1"
       y1="0"
       x1="0"><stop
         id="stop86"
         offset="0"
         style="stop-opacity:0;stop-color:#ffffff" /><stop
         id="stop88"
         offset="0.0052356"
         style="stop-opacity:0;stop-color:#ffffff" /><stop
         id="stop90"
         offset="1"
         style="stop-opacity:1;stop-color:#ffffff" /></linearGradient><mask
       id="mask92"
       height="1"
       width="1"
       y="0"
       x="0"
       maskUnits="userSpaceOnUse"><g
         id="g94"><g
           id="g96"><g
             id="g98"><g
               id="g100"><path
                 id="path102"
                 style="fill:url(#linearGradient84);stroke:none"
                 d="m -32768,32767 65535,0 0,-65535 -65535,0 0,65535 z" /></g></g></g></g></mask><linearGradient
       id="linearGradient104"
       spreadMethod="pad"
       gradientTransform="matrix(351.38239,0,0,-351.38239,95.152801,496.4003)"
       gradientUnits="userSpaceOnUse"
       y2="0"
       x2="1"
       y1="0"
       x1="0"><stop
         id="stop106"
         offset="0"
         style="stop-opacity:1;stop-color:#ffffff" /><stop
         id="stop108"
         offset="0.0052356"
         style="stop-opacity:1;stop-color:#ffffff" /><stop
         id="stop110"
         offset="1"
         style="stop-opacity:1;stop-color:#ffffff" /></linearGradient></defs><g
     id="g4282"
     transform="matrix(1.25,0,0,-1.25,9.7221813,354.17486)"><g
       transform="translate(-129.56948,-549.55332)"
       id="g3398"><text
         transform="matrix(1,0,0,-1,198.978,622.4277)"
         style="font-variant:normal;font-weight:bold;font-stretch:normal;font-size:163.08000183px;line-height:0%;font-family:'Century Gothic';-inkscape-font-specification:CenturyGothic-Bold;writing-mode:lr-tb;fill:#ffffff;fill-opacity:1;fill-rule:nonzero;stroke:none"
         id="text36"><tspan
           x="0"
           y="0"
           id="tspan38">G</tspan></text>
<g
         id="g134"
         transform="translate(163.1602,644.3998)"><path
           inkscape:connector-curvature="0"
           d="M 0,0 C 10.873,10.375 28.094,9.969 38.468,-0.904 48.842,-11.774 48.437,-29 37.565,-39.374 26.693,-49.745 9.468,-49.341 -0.906,-38.468 -11.277,-27.595 -10.873,-10.373 0,0"
           style="fill:#ffffff;fill-opacity:1;fill-rule:nonzero;stroke:none"
           id="path136" /></g><g
         id="g138"
         transform="translate(177.0781,593.2114)"><path
           inkscape:connector-curvature="0"
           d="m 0,0 c 0,0 23.969,-3.656 34.543,22.216 0,0 27.327,-72.986 86.27,-43.614 0,0 -64.789,-51.401 -120.813,21.398"
           style="fill:#ffffff;fill-opacity:1;fill-rule:nonzero;stroke:none"
           id="path140" /></g><g
         id="g142"
         transform="translate(153.1187,636.1699)"><path
           inkscape:connector-curvature="0"
           d="m 0,0 c 0,0 7.742,22.979 35.582,20.514 0,0 -52.334,57.748 0.796,96.661 C 36.378,117.175 -39.009,83.169 0,0"
           style="fill:#ffffff;fill-opacity:1;fill-rule:nonzero;stroke:none"
           id="path144" /></g><g
         id="g146"
         transform="translate(315.2305,777.9975)"><path
           inkscape:connector-curvature="0"
           d="m 0,0 c -1.826,-12.188 -13.186,-20.588 -25.374,-18.763 -12.188,1.826 -20.59,13.185 -18.762,25.374 1.823,12.187 13.185,20.59 25.374,18.764 C -6.575,23.552 1.827,12.19 0,0"
           style="fill:#ffffff;fill-opacity:1;fill-rule:nonzero;stroke:none"
           id="path148" /></g><g
         id="g150"
         transform="translate(280.4673,804.1562)"><path
           inkscape:connector-curvature="0"
           d="m 0,0 c 0,0 -17.368,-9.688 -11.205,-31.765 0,0 -54.412,33.532 -77.817,-15.142 0,0 16.111,65.885 89.022,46.907"
           style="fill:#ffffff;fill-opacity:1;fill-rule:nonzero;stroke:none"
           id="path152" /></g><g
         id="g154"
         transform="translate(317.5947,788.3793)"><path
           inkscape:connector-curvature="0"
           d="m 0,0 c 0,0 6.543,-18.778 -12.73,-31.186 0,0 62.946,-11.084 48.103,-63.014 0,0 31.731,59.949 -35.373,94.2"
           style="fill:#ffffff;fill-opacity:1;fill-rule:nonzero;stroke:none"
           id="path156" /></g><g
         id="g158"
         transform="translate(364.3447,599.3622)"><path
           inkscape:connector-curvature="0"
           d="m 0,0 c -8.37,1.73 -13.749,9.917 -12.02,18.286 1.73,8.371 9.917,13.749 18.288,12.018 8.368,-1.73 13.749,-9.919 12.018,-18.285 C 16.554,3.65 8.364,-1.73 0,0"
           style="fill:#ffffff;fill-opacity:1;fill-rule:nonzero;stroke:none"
           id="path160" /></g><g
         id="g162"
         transform="translate(383.7852,622.4262)"><path
           inkscape:connector-curvature="0"
           d="m 0,0 c 0,0 -6.042,12.396 -21.561,8.977 0,0 25.3,36.384 -7.5,54.456 0,0 44.996,-13.682 29.061,-63.433"
           style="fill:#ffffff;fill-opacity:1;fill-rule:nonzero;stroke:none"
           id="path164" /></g><g
         id="g166"
         transform="translate(371.4395,597.3281)"><path
           inkscape:connector-curvature="0"
           d="m 0,0 c 0,0 -13.251,-3.811 -21.102,10.008 0,0 -10.086,-43.153 -45.473,-30.887 0,0 40.291,-24.266 66.575,20.879"
           style="fill:#ffffff;fill-opacity:1;fill-rule:nonzero;stroke:none"
           id="path168" /></g></g><g
       id="g3435"
       transform="translate(287.01471,-4.6332642)"><g
         transform="scale(1,-1)"
         style="font-variant:normal;font-weight:bold;font-stretch:normal;font-size:149.26591492px;font-family:'Century Gothic';-inkscape-font-specification:CenturyGothic-Bold;writing-mode:lr-tb;fill:#ffffff;fill-opacity:1;fill-rule:nonzero;stroke:none"
         id="text40"><path
           d="m 96.300246,-117.09518 q -10.495259,5.10186 -21.79224,7.65279 -11.296981,2.55093 -23.322799,2.55093 -27.185638,0 -43.0742952,-15.15982 -15.8886569,-15.2327 -15.8886569,-41.2522 0,-26.31103 16.1801919,-41.39797 16.1801922,-15.08694 44.3133182,-15.08694 10.859679,0 20.771868,2.04075 9.985074,2.04074 18.804007,6.04935 l 0,22.52108 q -9.110468,-5.17475 -18.148053,-7.72568 -8.964701,-2.55093 -18.002286,-2.55093 -16.763261,0 -25.87373,9.402 -9.037585,9.32912 -9.037585,26.74834 0,17.27345 8.74605,26.67545 8.74605,9.402 24.853358,9.402 4.373025,0 8.090096,-0.51018 3.789955,-0.58307 6.778188,-1.74921 l 0,-21.13629 -17.12768,0 0,-18.80401 43.730248,0 0,52.33054 z"
           style="font-style:normal;font-variant:normal;font-weight:bold;font-stretch:normal;font-family:Kedage;-inkscape-font-specification:'Kedage Bold';letter-spacing:-16px;word-spacing:-0.43999979px;fill:#ffffff;fill-opacity:1"
           id="path3454" /><path
           d="m 104.93495,-217.82052 75.72622,0 0,21.20917 -47.66598,0 0,20.26168 44.82351,0 0,21.20917 -44.82351,0 0,24.92624 49.26942,0 0,21.20917 -77.32966,0 0,-108.81543 z"
           style="font-style:normal;font-variant:normal;font-weight:bold;font-stretch:normal;font-family:Kedage;-inkscape-font-specification:'Kedage Bold';letter-spacing:-16px;word-spacing:-0.43999979px;fill:#ffffff;fill-opacity:1"
           id="path3456" /><path
           d="m 190.97219,-217.82052 75.72621,0 0,21.20917 -47.66597,0 0,20.26168 44.82351,0 0,21.20917 -44.82351,0 0,24.92624 49.26942,0 0,21.20917 -77.32966,0 0,-108.81543 z"
           style="font-style:normal;font-variant:normal;font-weight:bold;font-stretch:normal;font-family:Kedage;-inkscape-font-specification:'Kedage Bold';fill:#ffffff;fill-opacity:1"
           id="path3458" /><path
           d="m 277.00945,-217.82052 35.71304,0 24.78047,58.23411 24.92624,-58.23411 35.64016,0 0,108.81543 -26.52969,0 0,-79.58905 -25.07201,58.67142 -17.78363,0 -25.07201,-58.67142 0,79.58905 -26.60257,0 0,-108.81543 z"
           style="font-style:normal;font-variant:normal;font-weight:bold;font-stretch:normal;font-family:Kedage;-inkscape-font-specification:'Kedage Bold';fill:#ffffff;fill-opacity:1"
           id="path3460" /><path
           d="m 485.4185,-214.39499 0,23.03127 q -8.9647,-4.00861 -17.4921,-6.04935 -8.5274,-2.04075 -16.10731,-2.04075 -10.05796,0 -14.86828,2.76958 -4.81033,2.76959 -4.81033,8.60029 0,4.37302 3.20688,6.85107 3.27977,2.40516 11.80717,4.15437 l 11.95293,2.40516 q 18.14806,3.64419 25.80085,11.07833 7.65279,7.43415 7.65279,21.13629 0,18.00229 -10.71391,26.82122 -10.64102,8.74605 -32.57903,8.74605 -10.34949,0 -20.77187,-1.96786 -10.42238,-1.96786 -20.84475,-5.8307 l 0,-23.68722 q 10.42237,5.53917 20.11591,8.38163 9.76643,2.76958 18.80401,2.76958 9.18335,0 14.06656,-3.06111 4.88321,-3.06112 4.88321,-8.74605 0,-5.10187 -3.35265,-7.87145 -3.27977,-2.76958 -13.19196,-4.95609 l -10.85967,-2.40517 q -16.32596,-3.49842 -23.90587,-11.15121 -7.50703,-7.65279 -7.50703,-20.6261 0,-16.25308 10.49526,-24.99913 10.49526,-8.74605 30.17387,-8.74605 8.9647,0 18.43959,1.3848 9.47489,1.3119 19.60573,4.0086 z"
           style="font-style:normal;font-variant:normal;font-weight:bold;font-stretch:normal;font-family:Kedage;-inkscape-font-specification:'Kedage Bold';fill:#ffffff;fill-opacity:0.94117647"
           id="path3462" /><path
           d="m 567.30137,-128.82947 -43.87601,0 -6.92396,19.82438 -28.20601,0 40.30471,-108.81543 33.45364,0 40.30472,108.81543 -28.20601,0 -6.85108,-19.82438 z m -36.87917,-20.1888 29.80945,0 -14.86828,-43.29294 -14.94117,43.29294 z"
           style="font-style:normal;font-variant:normal;font-weight:bold;font-stretch:normal;font-family:Kedage;-inkscape-font-specification:'Kedage Bold';fill:#ffffff;fill-opacity:0.94117647"
           id="path3464" /></g><g
         transform="scale(1,-1)"
         style="font-style:italic;font-variant:normal;font-weight:normal;font-stretch:normal;font-size:31.2451992px;font-family:'Century Gothic';-inkscape-font-specification:CenturyGothic-Italic;writing-mode:lr-tb;fill:#ffffff;fill-opacity:1;fill-rule:nonzero;stroke:none"
         id="text170"><path
           d="m 7.8753671,-62.059376 1.1900027,-5.96527 -5.0651397,0 0.4729498,-2.532569 8.0859161,0 -1.968082,10.023484 q -2.0291069,1.11372 -4.4243687,1.723978 -2.3952619,0.595001 -4.8210366,0.595001 -4.287061,0 -6.7128358,-2.380005 -2.4105183,-2.380005 -2.4105183,-6.621297 0,-3.524239 1.4646187,-6.697579 1.4798752,-3.188597 4.0734708,-5.309243 1.63243964,-1.327311 3.5700081,-1.968082 1.9375685,-0.656027 4.3023175,-0.656027 2.1359023,0 4.0887273,0.549232 1.968081,0.533976 3.753085,1.617183 l -0.625514,3.280136 q -1.37308,-1.434106 -3.2191097,-2.181671 -1.8460299,-0.762823 -3.9361628,-0.762823 -2.4257748,0 -4.2718046,0.930643 -1.84602982,0.915387 -3.2953921,2.852956 -1.235772,1.647696 -1.9528249,3.890393 -0.7017965,2.227441 -0.7017965,4.546421 0,3.188597 1.6324396,4.80578 1.6324396,1.601927 4.8668059,1.601927 1.6171832,0 3.1275712,-0.335642 1.5103881,-0.350899 2.776673,-1.006926 z"
           style=""
           id="path3467" /><path
           d="m 30.073494,-68.726442 q 0.04577,-0.244103 0.06103,-0.503463 0.03051,-0.259359 0.03051,-0.518719 0,-1.861286 -1.098464,-2.944494 -1.083207,-1.083207 -2.95975,-1.083207 -2.090133,0 -3.69206,1.32731 -1.601926,1.312055 -2.425774,3.737829 l 10.08451,-0.01526 z m 2.441031,2.196928 -13.059517,0 q -0.09154,0.579745 -0.122051,0.915387 -0.03051,0.335641 -0.03051,0.579745 0,2.120645 1.296798,3.280135 1.312054,1.15949 3.692059,1.15949 1.830774,0 3.463213,-0.411924 1.63244,-0.411924 3.036033,-1.205259 l -0.533976,2.776673 q -1.510388,0.610258 -3.127571,0.915387 -1.601927,0.305128 -3.264879,0.305128 -3.554752,0 -5.477064,-1.693465 -1.907056,-1.708722 -1.907056,-4.836293 0,-2.669878 0.9459,-4.958345 0.961156,-2.303723 2.807186,-4.103983 1.190003,-1.128977 2.822442,-1.739235 1.647696,-0.610258 3.493726,-0.610258 2.898725,0 4.607446,1.739235 1.723979,1.739235 1.723979,4.668472 0,0.701797 -0.09154,1.510388 -0.09154,0.793335 -0.274616,1.708722 z"
           style=""
           id="path3469" /><path
           d="m 49.891617,-75.240944 -0.533976,2.654621 q -1.11372,-0.610257 -2.349492,-0.915386 -1.235772,-0.305129 -2.547827,-0.305129 -2.212184,0 -3.493725,0.762822 -1.266285,0.747566 -1.266285,2.044364 0,1.510388 2.95975,2.318979 0.228847,0.06103 0.335642,0.09154 l 0.90013,0.274616 q 2.807186,0.778079 3.737829,1.63244 0.9459,0.85436 0.9459,2.334236 0,2.715647 -2.166416,4.424369 -2.151158,1.708721 -5.644884,1.708721 -1.357824,0 -2.852955,-0.259359 -1.495132,-0.25936 -3.295393,-0.808592 l 0.549232,-2.898724 q 1.540901,0.793335 3.036033,1.205259 1.495132,0.411924 2.868212,0.411924 2.05962,0 3.341161,-0.884874 1.296798,-0.884874 1.296798,-2.242697 0,-1.464619 -3.386931,-2.364749 l -0.289872,-0.07628 -0.961156,-0.244104 q -2.135903,-0.564488 -3.127572,-1.479875 -0.991668,-0.930643 -0.991668,-2.364749 0,-2.730903 2.044363,-4.33283 2.05962,-1.601927 5.583859,-1.601927 1.388336,0 2.700391,0.228847 1.32731,0.228847 2.608852,0.68654 z"
           style=""
           id="path3471" /><path
           d="m 63.774979,-75.744407 -0.42718,2.181672 -5.599116,0 -1.815517,9.275918 q -0.09154,0.51872 -0.137308,0.869618 -0.04577,0.350898 -0.04577,0.549232 0,0.976412 0.579745,1.418849 0.595001,0.442437 1.891799,0.442437 l 2.837699,0 -0.47295,2.349493 -2.685134,0 q -2.502057,0 -3.737829,-0.976413 -1.220516,-0.976412 -1.220516,-2.95975 0,-0.350898 0.04577,-0.762822 0.04577,-0.427181 0.137308,-0.930644 l 1.815517,-9.275918 -2.380005,0 0.442437,-2.181672 2.334236,0 0.9459,-4.851549 2.807185,0 -0.930643,4.851549 5.614372,0 z"
           style=""
           id="path3473" /><path
           d="m 68.55025,-82.396217 2.807186,0 -0.68654,3.554752 -2.807186,0 0.68654,-3.554752 z m -1.281541,6.65181 2.807186,0 -3.341162,17.087219 -2.807186,0 3.341162,-17.087219 z"
           style=""
           id="path3475" /><path
           d="m 79.428092,-58.214752 q -3.00552,0 -4.760011,-1.846029 -1.739235,-1.861287 -1.739235,-5.06514 0,-1.861286 0.595002,-3.783598 0.610257,-1.937569 1.571413,-3.249623 1.510389,-2.044364 3.371675,-3.020776 1.861286,-0.976413 4.210779,-0.976413 2.913981,0 4.698985,1.815517 1.80026,1.815517 1.80026,4.744755 0,2.029107 -0.595001,4.042957 -0.595002,2.013851 -1.556158,3.341162 -1.495131,2.044364 -3.356417,3.020776 -1.861287,0.976412 -4.241292,0.976412 z m -3.585265,-7.002708 q 0,2.31898 0.961156,3.47847 0.976413,1.144233 2.944494,1.144233 2.822443,0 4.668472,-2.456288 1.861287,-2.471544 1.861287,-6.255142 0,-2.212184 -0.991669,-3.341161 -0.991669,-1.128977 -2.913981,-1.128977 -1.586671,0 -2.822443,0.747565 -1.235772,0.73231 -2.212184,2.242698 -0.717053,1.128977 -1.113721,2.578339 -0.381411,1.449362 -0.381411,2.990263 z m 10.679512,-18.429785 3.036032,0 -6.087321,5.736423 -2.349493,0 5.400782,-5.736423 z"
           style=""
           id="path3477" /><path
           d="m 108.00341,-68.970545 -1.99859,10.313357 -2.82245,0 1.9986,-10.206562 q 0.13731,-0.717053 0.21359,-1.266285 0.0763,-0.549232 0.0763,-0.869617 0,-1.281542 -0.80859,-1.998595 -0.80859,-0.717053 -2.25795,-0.717053 -2.25796,0 -3.890398,1.510388 -1.63244,1.495132 -2.135902,4.073471 l -1.876543,9.474253 -2.807186,0 3.310649,-17.087219 2.807186,0 -0.564489,2.685135 q 1.174746,-1.479876 2.822443,-2.288467 1.6477,-0.808592 3.46321,-0.808592 2.25796,0 3.49373,1.220516 1.25103,1.220515 1.25103,3.4327 0,0.549232 -0.0763,1.174746 -0.061,0.625514 -0.19833,1.357824 z"
           style=""
           id="path3479" /><path
           d="m 125.65512,-81.435061 14.40208,0 -0.50346,2.593596 -11.33554,0 -1.31206,6.743349 10.87785,0 -0.50346,2.593595 -10.87785,0 -1.58667,8.253737 11.5949,0 -0.50346,2.593596 -14.69196,0 4.43963,-22.777873 z"
           style=""
           id="path3481" /><path
           d="m 168.20534,-68.970545 -1.99859,10.313357 -2.80719,0 1.96808,-10.221819 q 0.12205,-0.656027 0.18308,-1.128976 0.061,-0.47295 0.061,-0.808592 0,-1.37308 -0.76283,-2.135902 -0.76282,-0.762823 -2.1359,-0.762823 -2.04436,0 -3.64629,1.540901 -1.60193,1.525645 -2.07487,3.981933 l -1.87655,9.535278 -2.80718,0 1.99859,-10.221819 q 0.12205,-0.564488 0.18308,-1.037438 0.061,-0.488206 0.061,-0.869617 0,-1.388337 -0.76282,-2.151159 -0.76282,-0.778079 -2.10539,-0.778079 -2.07487,0 -3.6768,1.540901 -1.60193,1.525645 -2.07488,3.981933 l -1.87654,9.535278 -2.80719,0 3.34117,-17.087219 2.80718,0 -0.53397,2.654622 q 1.14423,-1.495132 2.66987,-2.273211 1.5409,-0.793335 3.2954,-0.793335 1.86128,0 3.05128,0.976413 1.20526,0.976412 1.44937,2.715647 1.28154,-1.800261 2.95975,-2.74616 1.69346,-0.9459 3.57001,-0.9459 2.19692,0 3.38693,1.266285 1.20526,1.266285 1.20526,3.585265 0,0.503462 -0.061,1.11372 -0.061,0.595002 -0.18308,1.220516 z"
           style=""
           id="path3483" /><path
           d="m 186.10115,-69.184135 q 0,-2.242698 -0.97642,-3.432701 -0.97641,-1.190002 -2.80718,-1.190002 -1.25103,0 -2.39526,0.64077 -1.12898,0.640771 -2.01385,1.861287 -0.86962,1.205259 -1.38834,2.913981 -0.51872,1.708722 -0.51872,3.38693 0,2.135903 0.97641,3.295393 0.97641,1.144233 2.77668,1.144233 1.32731,0 2.45628,-0.625514 1.14424,-0.625515 1.95283,-1.815517 0.86962,-1.251029 1.40359,-2.944494 0.53398,-1.693465 0.53398,-3.234366 z m -8.69618,-3.966676 q 1.12898,-1.479875 2.65462,-2.242697 1.54091,-0.762823 3.41745,-0.762823 2.62411,0 4.07347,1.723979 1.44936,1.708721 1.44936,4.80578 0,2.53257 -0.90013,4.836293 -0.90013,2.288466 -2.59359,4.103983 -1.12898,1.20526 -2.54783,1.84603 -1.41885,0.625514 -2.99026,0.625514 -1.81552,0 -3.05129,-0.747565 -1.23578,-0.762823 -1.84603,-2.257954 l -1.75449,9.062328 -2.80719,0 4.59219,-23.586464 2.80719,0 -0.50347,2.593596 z"
           style=""
           id="path3485" /><path
           d="m 204.36312,-73.150811 q -0.42718,-0.228847 -0.97641,-0.350898 -0.54923,-0.122052 -1.17475,-0.122052 -2.24269,0 -3.9209,1.708722 -1.67821,1.693465 -2.22744,4.546421 l -1.72398,8.71143 -2.80719,0 3.34116,-17.087219 2.80719,0 -0.53398,2.654622 q 1.11372,-1.479875 2.65462,-2.273211 1.55616,-0.793335 3.31065,-0.793335 0.4577,0 0.90013,0.06103 0.44244,0.04577 0.88488,0.167821 l -0.53398,2.776673 z"
           style=""
           id="path3487" /><path
           d="m 218.33802,-68.726442 q 0.0458,-0.244103 0.061,-0.503463 0.0305,-0.259359 0.0305,-0.518719 0,-1.861286 -1.09847,-2.944494 -1.0832,-1.083207 -2.95975,-1.083207 -2.09013,0 -3.69206,1.32731 -1.60192,1.312055 -2.42577,3.737829 l 10.08451,-0.01526 z m 2.44103,2.196928 -13.05952,0 q -0.0915,0.579745 -0.12205,0.915387 -0.0305,0.335641 -0.0305,0.579745 0,2.120645 1.2968,3.280135 1.31205,1.15949 3.69206,1.15949 1.83077,0 3.46321,-0.411924 1.63244,-0.411924 3.03603,-1.205259 l -0.53397,2.776673 q -1.51039,0.610258 -3.12757,0.915387 -1.60193,0.305128 -3.26488,0.305128 -3.55475,0 -5.47707,-1.693465 -1.90705,-1.708722 -1.90705,-4.836293 0,-2.669878 0.9459,-4.958345 0.96115,-2.303723 2.80718,-4.103983 1.19001,-1.128977 2.82245,-1.739235 1.64769,-0.610258 3.49372,-0.610258 2.89873,0 4.60745,1.739235 1.72398,1.739235 1.72398,4.668472 0,0.701797 -0.0915,1.510388 -0.0915,0.793335 -0.27462,1.708722 z"
           style=""
           id="path3489" /><path
           d="m 238.15614,-75.240944 -0.53398,2.654621 q -1.11372,-0.610257 -2.34949,-0.915386 -1.23577,-0.305129 -2.54783,-0.305129 -2.21218,0 -3.49372,0.762822 -1.26629,0.747566 -1.26629,2.044364 0,1.510388 2.95975,2.318979 0.22885,0.06103 0.33564,0.09154 l 0.90013,0.274616 q 2.80719,0.778079 3.73783,1.63244 0.9459,0.85436 0.9459,2.334236 0,2.715647 -2.16641,4.424369 -2.15116,1.708721 -5.64489,1.708721 -1.35782,0 -2.85295,-0.259359 -1.49514,-0.25936 -3.2954,-0.808592 l 0.54924,-2.898724 q 1.5409,0.793335 3.03603,1.205259 1.49513,0.411924 2.86821,0.411924 2.05962,0 3.34116,-0.884874 1.2968,-0.884874 1.2968,-2.242697 0,-1.464619 -3.38693,-2.364749 l -0.28987,-0.07628 -0.96116,-0.244104 q -2.1359,-0.564488 -3.12757,-1.479875 -0.99167,-0.930643 -0.99167,-2.364749 0,-2.730903 2.04436,-4.33283 2.05962,-1.601927 5.58386,-1.601927 1.38834,0 2.70039,0.228847 1.32731,0.228847 2.60886,0.68654 z"
           style=""
           id="path3491" /><path
           d="m 255.60951,-68.406057 -1.90706,9.748869 -2.80718,0 0.51872,-2.593596 q -1.23577,1.525644 -2.82245,2.288467 -1.57141,0.747565 -3.50898,0.747565 -2.18167,0 -3.58526,-1.32731 -1.38834,-1.342567 -1.38834,-3.4327 0,-2.990264 2.38001,-4.729498 2.39526,-1.739235 6.59078,-1.739235 l 3.90565,0 0.15257,-0.747566 q 0.0305,-0.122051 0.0458,-0.259359 0.0153,-0.152565 0.0153,-0.457694 0,-1.357823 -1.11372,-2.105389 -1.09846,-0.762822 -3.09706,-0.762822 -1.37308,0 -2.82244,0.350898 -1.43411,0.350898 -2.95975,1.052695 l 0.48821,-2.593596 q 1.58667,-0.595001 3.09705,-0.884874 1.52565,-0.305129 2.9445,-0.305129 3.02077,0 4.59219,1.312055 1.58667,1.312054 1.58667,3.814111 0,0.503462 -0.0763,1.190002 -0.0763,0.671284 -0.22885,1.434106 z m -3.03603,1.15949 -2.80719,0 q -3.44796,0 -5.11091,0.930643 -1.64769,0.915387 -1.64769,2.852955 0,1.342568 0.8391,2.10539 0.85436,0.762822 2.34949,0.762822 2.28847,0 3.99719,-1.63244 1.70872,-1.647696 2.25796,-4.393856 l 0.12205,-0.625514 z"
           style=""
           id="path3493" /><path
           d="m 271.91866,-73.150811 q -0.42718,-0.228847 -0.97641,-0.350898 -0.54923,-0.122052 -1.17474,-0.122052 -2.2427,0 -3.92091,1.708722 -1.67821,1.693465 -2.22744,4.546421 l -1.72398,8.71143 -2.80719,0 3.34117,-17.087219 2.80718,0 -0.53397,2.654622 q 1.11372,-1.479875 2.65462,-2.273211 1.55615,-0.793335 3.31065,-0.793335 0.45769,0 0.90013,0.06103 0.44243,0.04577 0.88487,0.167821 l -0.53398,2.776673 z"
           style=""
           id="path3495" /><path
           d="m 276.58713,-82.396217 2.80719,0 -0.68654,3.554752 -2.80719,0 0.68654,-3.554752 z m -1.28154,6.65181 2.80719,0 -3.34117,17.087219 -2.80718,0 3.34116,-17.087219 z"
           style=""
           id="path3497" /><path
           d="m 296.3137,-68.406057 -1.90705,9.748869 -2.80719,0 0.51872,-2.593596 q -1.23577,1.525644 -2.82244,2.288467 -1.57142,0.747565 -3.50898,0.747565 -2.18168,0 -3.58527,-1.32731 -1.38834,-1.342567 -1.38834,-3.4327 0,-2.990264 2.38001,-4.729498 2.39526,-1.739235 6.59078,-1.739235 l 3.90565,0 0.15257,-0.747566 q 0.0305,-0.122051 0.0458,-0.259359 0.0153,-0.152565 0.0153,-0.457694 0,-1.357823 -1.11372,-2.105389 -1.09846,-0.762822 -3.09705,-0.762822 -1.37308,0 -2.82245,0.350898 -1.4341,0.350898 -2.95975,1.052695 l 0.48821,-2.593596 q 1.58667,-0.595001 3.09706,-0.884874 1.52564,-0.305129 2.94449,-0.305129 3.02078,0 4.59219,1.312055 1.58667,1.312054 1.58667,3.814111 0,0.503462 -0.0763,1.190002 -0.0763,0.671284 -0.22885,1.434106 z m -3.03603,1.15949 -2.80719,0 q -3.44795,0 -5.1109,0.930643 -1.6477,0.915387 -1.6477,2.852955 0,1.342568 0.8391,2.10539 0.85436,0.762822 2.3495,0.762822 2.28846,0 3.99718,-1.63244 1.70873,-1.647696 2.25796,-4.393856 l 0.12205,-0.625514 z"
           style=""
           id="path3499" /><path
           d="m 304.41489,-82.396217 2.80719,0 -4.62271,23.739029 -2.80718,0 4.6227,-23.739029 z"
           style=""
           id="path3501" /><path
           d="m 332.33417,-68.726442 q 0.0458,-0.244103 0.061,-0.503463 0.0305,-0.259359 0.0305,-0.518719 0,-1.861286 -1.09846,-2.944494 -1.08321,-1.083207 -2.95975,-1.083207 -2.09013,0 -3.69206,1.32731 -1.60193,1.312055 -2.42578,3.737829 l 10.08451,-0.01526 z m 2.44104,2.196928 -13.05952,0 q -0.0915,0.579745 -0.12205,0.915387 -0.0305,0.335641 -0.0305,0.579745 0,2.120645 1.2968,3.280135 1.31206,1.15949 3.69206,1.15949 1.83078,0 3.46322,-0.411924 1.63243,-0.411924 3.03603,-1.205259 l -0.53398,2.776673 q -1.51039,0.610258 -3.12757,0.915387 -1.60193,0.305128 -3.26488,0.305128 -3.55475,0 -5.47706,-1.693465 -1.90706,-1.708722 -1.90706,-4.836293 0,-2.669878 0.9459,-4.958345 0.96116,-2.303723 2.80719,-4.103983 1.19,-1.128977 2.82244,-1.739235 1.6477,-0.610258 3.49373,-0.610258 2.89872,0 4.60744,1.739235 1.72398,1.739235 1.72398,4.668472 0,0.701797 -0.0915,1.510388 -0.0915,0.793335 -0.27461,1.708722 z"
           style=""
           id="path3503" /><path
           d="m 353.93729,-68.970545 -1.99859,10.313357 -2.82244,0 1.99859,-10.206562 q 0.13731,-0.717053 0.21359,-1.266285 0.0763,-0.549232 0.0763,-0.869617 0,-1.281542 -0.80859,-1.998595 -0.80859,-0.717053 -2.25795,-0.717053 -2.25795,0 -3.89039,1.510388 -1.63244,1.495132 -2.13591,4.073471 l -1.87654,9.474253 -2.80719,0 3.31065,-17.087219 2.80719,0 -0.56449,2.685135 q 1.17475,-1.479876 2.82244,-2.288467 1.6477,-0.808592 3.46322,-0.808592 2.25795,0 3.49372,1.220516 1.25103,1.220515 1.25103,3.4327 0,0.549232 -0.0763,1.174746 -0.061,0.625514 -0.19834,1.357824 z"
           style=""
           id="path3505" /><path
           d="m 385.15198,-80.687495 -0.595,3.00552 q -1.5409,-0.823848 -3.06655,-1.235772 -1.51039,-0.427181 -2.92924,-0.427181 -2.76141,0 -4.39385,1.205259 -1.63244,1.20526 -1.63244,3.203854 0,1.098464 0.595,1.693465 0.61026,0.579745 3.11232,1.251029 l 1.84602,0.457693 q 3.12758,0.808592 4.34809,2.05962 1.22052,1.235772 1.22052,3.47847 0,3.447956 -2.71565,5.614371 -2.70039,2.166415 -7.12476,2.166415 -1.81552,0 -3.64629,-0.366154 -1.83077,-0.350898 -3.6768,-1.083208 l 0.62551,-3.17334 q 1.69347,1.052694 3.38693,1.58667 1.70872,0.533976 3.40219,0.533976 2.88347,0 4.6227,-1.281542 1.73924,-1.281541 1.73924,-3.341161 0,-1.37308 -0.7018,-2.074877 -0.68654,-0.717053 -2.97501,-1.296798 l -1.84603,-0.472949 q -3.15808,-0.823848 -4.31757,-1.8918 -1.14423,-1.083207 -1.14423,-3.020776 0,-3.402187 2.60885,-5.568602 2.62411,-2.181672 6.81963,-2.181672 1.63244,0 3.23437,0.289873 1.60192,0.289872 3.20385,0.869617 z"
           style=""
           id="path3507" /><path
           d="m 402.92573,-68.406057 -1.90705,9.748869 -2.80719,0 0.51872,-2.593596 q -1.23577,1.525644 -2.82244,2.288467 -1.57142,0.747565 -3.50898,0.747565 -2.18168,0 -3.58527,-1.32731 -1.38834,-1.342567 -1.38834,-3.4327 0,-2.990264 2.38001,-4.729498 2.39526,-1.739235 6.59078,-1.739235 l 3.90565,0 0.15257,-0.747566 q 0.0305,-0.122051 0.0458,-0.259359 0.0153,-0.152565 0.0153,-0.457694 0,-1.357823 -1.11372,-2.105389 -1.09846,-0.762822 -3.09705,-0.762822 -1.37308,0 -2.82245,0.350898 -1.4341,0.350898 -2.95975,1.052695 l 0.48821,-2.593596 q 1.58667,-0.595001 3.09706,-0.884874 1.52564,-0.305129 2.94449,-0.305129 3.02078,0 4.59219,1.312055 1.58667,1.312054 1.58667,3.814111 0,0.503462 -0.0763,1.190002 -0.0763,0.671284 -0.22885,1.434106 z m -3.03603,1.15949 -2.80719,0 q -3.44795,0 -5.1109,0.930643 -1.6477,0.915387 -1.6477,2.852955 0,1.342568 0.8391,2.10539 0.85436,0.762822 2.3495,0.762822 2.28846,0 3.99718,-1.63244 1.70873,-1.647696 2.25796,-4.393856 l 0.12205,-0.625514 z"
           style=""
           id="path3509" /><path
           d="m 411.02692,-82.396217 2.80719,0 -4.62271,23.739029 -2.80718,0 4.6227,-23.739029 z"
           style=""
           id="path3511" /><path
           d="m 416.06154,-65.43105 1.99859,-10.313357 2.82244,0 -1.99859,10.206562 q -0.15257,0.747566 -0.22885,1.281541 -0.061,0.533976 -0.061,0.884874 0,1.296798 0.79334,2.013851 0.79334,0.701796 2.2427,0.701796 2.25795,0 3.90565,-1.525644 1.64769,-1.525645 2.15116,-4.103984 l 1.87654,-9.458996 2.80718,0 -3.31064,17.087219 -2.80719,0 0.56449,-2.685135 q -1.19,1.495132 -2.8377,2.31898 -1.63244,0.808591 -3.47847,0.808591 -2.2427,0 -3.49373,-1.220515 -1.25102,-1.235772 -1.25102,-3.4327 0,-0.457694 0.0763,-1.144234 0.0763,-0.68654 0.22885,-1.418849 z"
           style=""
           id="path3513" /><path
           d="m 446.86429,-61.220271 q -1.12897,1.479875 -2.66987,2.242697 -1.54091,0.762822 -3.41745,0.762822 -2.56308,0 -4.05821,-1.739234 -1.47988,-1.754491 -1.47988,-4.790524 0,-2.53257 0.90013,-4.821037 0.90013,-2.303723 2.60885,-4.11924 1.12898,-1.205259 2.54783,-1.830773 1.41885,-0.640771 2.97501,-0.640771 1.64769,0 2.89872,0.793335 1.26629,0.793336 1.95283,2.273211 l 1.83077,-9.306432 2.82244,0 -4.6227,23.739029 -2.82244,0 0.53397,-2.563083 z m -8.71143,-4.027702 q 0,2.212185 0.99167,3.447957 1.00693,1.235772 2.77667,1.235772 1.31206,0 2.42578,-0.625514 1.12898,-0.640771 1.98334,-1.876543 0.90013,-1.281541 1.41885,-2.95975 0.51872,-1.678209 0.51872,-3.310649 0,-2.120646 -1.00693,-3.310648 -0.99167,-1.190003 -2.74616,-1.190003 -1.32731,0 -2.47154,0.625514 -1.14424,0.625514 -1.95283,1.800261 -0.88487,1.266285 -1.41885,2.944493 -0.51872,1.678209 -0.51872,3.21911 z"
           style=""
           id="path3515" /></g></g></g></svg>