<?xml version="1.0" encoding="UTF-8" standalone="no"?>
<!-- Generator: Adobe Illustrator 19.0.0, SVG Export Plug-In . SVG Version: 6.00 Build 0)  -->

<svg
   xmlns:dc="http://purl.org/dc/elements/1.1/"
   xmlns:cc="http://creativecommons.org/ns#"
   xmlns:rdf="http://www.w3.org/1999/02/22-rdf-syntax-ns#"
   xmlns:svg="http://www.w3.org/2000/svg"
   xmlns="http://www.w3.org/2000/svg"
   xmlns:sodipodi="http://sodipodi.sourceforge.net/DTD/sodipodi-0.dtd"
   xmlns:inkscape="http://www.inkscape.org/namespaces/inkscape"
   version="1.1"
   id="Layer_1"
   x="0px"
   y="0px"
   viewBox="0 0 512.001 512.001"
   style="enable-background:new 0 0 512.001 512.001;"
   xml:space="preserve"
   width="512px"
   height="512px"
   sodipodi:docname="classroom.svg"
   inkscape:version="0.92.1 r15371"><metadata
     id="metadata97"><rdf:RDF><cc:Work
         rdf:about=""><dc:format>image/svg+xml</dc:format><dc:type
           rdf:resource="http://purl.org/dc/dcmitype/StillImage" /></cc:Work></rdf:RDF></metadata><defs
     id="defs95" /><sodipodi:namedview
     pagecolor="#ffffff"
     bordercolor="#666666"
     borderopacity="1"
     objecttolerance="10"
     gridtolerance="10"
     guidetolerance="10"
     inkscape:pageopacity="0"
     inkscape:pageshadow="2"
     inkscape:window-width="1440"
     inkscape:window-height="836"
     id="namedview93"
     showgrid="false"
     inkscape:zoom="0.4609375"
     inkscape:cx="260.33898"
     inkscape:cy="247.32203"
     inkscape:window-x="0"
     inkscape:window-y="27"
     inkscape:window-maximized="1"
     inkscape:current-layer="Layer_1" /><g
     id="g6"
     style="fill:#2a7fff"
     inkscape:export-filename="/home/neptune/Downloads/images page/asesoria.vga.png"
     inkscape:export-xdpi="11.072344"
     inkscape:export-ydpi="11.072344"><g
       id="g4"
       style="fill:#2a7fff"><path
         d="M186.932,56.049c-4.435,0-8.03,3.595-8.03,8.03s3.595,8.03,8.03,8.03h66.178c1.415-5.811,3.833-11.233,7.076-16.06    H186.932z"
         fill="#006DF0"
         id="path2"
         style="fill:#2a7fff" /></g></g><g
     id="g12"
     style="fill:#2a7fff"
     inkscape:export-filename="/home/neptune/Downloads/images page/asesoria.vga.png"
     inkscape:export-xdpi="11.072344"
     inkscape:export-ydpi="11.072344"><g
       id="g10"
       style="fill:#2a7fff"><path
         d="M487.727,0H143.362c-6.097,0-11.042,4.943-11.042,11.042v230.754c0,6.098,4.943,11.042,11.042,11.042h57.443l0.112-22.083    h-46.512V22.083h322.281v208.672H362.376v22.083h125.35c6.098,0,11.042-4.943,11.042-11.042V11.042    C498.768,4.943,493.824,0,487.727,0z"
         fill="#006DF0"
         id="path8"
         style="fill:#2a7fff" /></g></g><g
     id="g18"
     style="fill:#2a7fff"
     inkscape:export-filename="/home/neptune/Downloads/images page/asesoria.vga.png"
     inkscape:export-xdpi="11.072344"
     inkscape:export-ydpi="11.072344"><g
       id="g16"
       style="fill:#2a7fff"><path
         d="M301.929,48.796c-19.437,0-35.194,15.757-35.194,35.194c0,9.452,3.792,18.662,10.897,25.447c6.093,0,42.623,0,48.593,0    c6.71-6.408,10.897-15.436,10.897-25.447C337.123,64.553,321.366,48.796,301.929,48.796z"
         fill="#006DF0"
         id="path14"
         style="fill:#2a7fff" /></g></g><g
     id="g24"
     style="fill:#2a7fff"
     inkscape:export-filename="/home/neptune/Downloads/images page/asesoria.vga.png"
     inkscape:export-xdpi="11.072344"
     inkscape:export-ydpi="11.072344"><g
       id="g22"
       style="fill:#2a7fff"><path
         d="M457.638,77.835c-2.011-1.896-4.365-3.189-6.846-3.919l-3.764-17.923c-1.139-5.424-6.46-8.899-11.886-7.76    c-4.038,0.848-6.992,4.015-7.77,7.816h-83.699c3.243,4.829,5.661,10.25,7.076,16.061h79.151l1.784,8.495l-34.533,36.62    c-7.144,0.836-55.364,6.473-62.176,7.27c0,0-61.774,0-78.484,0c-21.954,0-40.073,17.858-40.184,39.983l-0.62,123.512    c-0.06,11.935,8.454,18.265,16.889,18.307c0.029,0,0.058,0,0.087,0c9.335-0.001,16.928-7.547,16.975-16.896l0.182-36.256    l0.445-88.497c0.052-1.945,1.658-3.486,3.602-3.459c1.944,0.027,3.505,1.611,3.505,3.556    c-0.009,158.547-0.369,37.714-0.369,257.017c6.25-2.743,13.078-4.392,20.245-4.699v-4.024c-3.415-6.917-5.342-14.694-5.342-22.916    c0-19.137,10.407-35.878,25.852-44.893v-58.002h8.799v53.913c5.417-1.919,11.239-2.975,17.306-2.975    c8.434,0,16.398,2.033,23.449,5.615l-0.065-186.529c10.592-1.239,53.025-6.2,59.988-7.013c3.966-0.464,7.642-2.31,10.382-5.216    l40.724-43.183C464.777,95.017,464.461,84.27,457.638,77.835z"
         fill="#006DF0"
         id="path20"
         style="fill:#2a7fff" /></g></g><g
     id="g30"
     style="fill:#2a7fff"
     inkscape:export-filename="/home/neptune/Downloads/images page/asesoria.vga.png"
     inkscape:export-xdpi="11.072344"
     inkscape:export-ydpi="11.072344"><g
       id="g28"
       style="fill:#2a7fff"><path
         d="M406.579,473.584c-0.106-21.358-17.601-38.625-38.82-38.625c-10.958,0-77.107,0-88.069,0    c-21.299,0-38.714,17.328-38.821,38.626L240.676,512h14.487c0-22.289,18.217-40.124,40.124-40.124h58.302    c22.066,0,40.122,17.974,40.122,40.124h13.062L406.579,473.584z"
         fill="#006DF0"
         id="path26"
         style="fill:#2a7fff" /></g></g><g
     id="g36"
     style="fill:#2a7fff"
     inkscape:export-filename="/home/neptune/Downloads/images page/asesoria.vga.png"
     inkscape:export-xdpi="11.072344"
     inkscape:export-ydpi="11.072344"><g
       id="g34"
       style="fill:#2a7fff"><path
         d="M323.862,356.124c-18.775,0-33.998,15.22-33.998,33.998c0,18.796,15.272,33.998,33.998,33.998    c18.662,0,33.998-15.117,33.998-33.998C357.861,371.345,342.639,356.124,323.862,356.124z"
         fill="#006DF0"
         id="path32"
         style="fill:#2a7fff" /></g></g><g
     id="g42"
     style="fill:#2a7fff"
     inkscape:export-filename="/home/neptune/Downloads/images page/asesoria.vga.png"
     inkscape:export-xdpi="11.072344"
     inkscape:export-ydpi="11.072344"><g
       id="g40"
       style="fill:#2a7fff"><path
         d="M96.143,356.124c-18.734,0-33.998,15.175-33.998,33.998c-0.001,18.887,15.347,33.998,33.998,33.998    c18.732,0,33.998-15.208,33.998-33.998C130.142,371.345,114.92,356.124,96.143,356.124z"
         fill="#006DF0"
         id="path38"
         style="fill:#2a7fff" /></g></g><g
     id="g48"
     style="fill:#2a7fff"
     inkscape:export-filename="/home/neptune/Downloads/images page/asesoria.vga.png"
     inkscape:export-xdpi="11.072344"
     inkscape:export-ydpi="11.072344"><g
       id="g46"
       style="fill:#2a7fff"><path
         d="M353.589,483.33h-58.302c-15.834,0-28.67,12.835-28.67,28.67h115.642C382.259,496.166,369.423,483.33,353.589,483.33z"
         fill="#006DF0"
         id="path44"
         style="fill:#2a7fff" /></g></g><g
     id="g54"
     style="fill:#2a7fff"
     inkscape:export-filename="/home/neptune/Downloads/images page/asesoria.vga.png"
     inkscape:export-xdpi="11.072344"
     inkscape:export-ydpi="11.072344"><g
       id="g52"
       style="fill:#2a7fff"><path
         d="M123.231,483.33H64.929c-15.834,0-28.67,12.835-28.67,28.67c11.959,0,103.786,0,115.642,0    C151.901,496.166,139.065,483.33,123.231,483.33z"
         fill="#006DF0"
         id="path50"
         style="fill:#2a7fff" /></g></g><g
     id="g60"
     style="fill:#2a7fff"
     inkscape:export-filename="/home/neptune/Downloads/images page/asesoria.vga.png"
     inkscape:export-xdpi="11.072344"
     inkscape:export-ydpi="11.072344"><g
       id="g58"
       style="fill:#2a7fff"><path
         d="M211.076,318.535c-7.815-1.775-15.585,3.126-17.356,10.938l-17.192,75.796c-3.911,2.861-36.182,26.468-40.586,29.69    c-8.925,0-78.563,0-83.695,0c-21.191,0-38.713,17.239-38.821,38.626l-0.193,38.416h11.573c0-22.151,18.052-40.124,40.124-40.124    h58.302c7.463,0,14.453,2.054,20.446,5.62l0.228-12.414l54.136-39.601c2.826-2.067,4.808-5.085,5.582-8.5l18.392-81.09    C223.788,328.078,218.89,320.307,211.076,318.535z"
         fill="#006DF0"
         id="path56"
         style="fill:#2a7fff" /></g></g><g
     id="g62" /><g
     id="g64" /><g
     id="g66" /><g
     id="g68" /><g
     id="g70" /><g
     id="g72" /><g
     id="g74" /><g
     id="g76" /><g
     id="g78" /><g
     id="g80" /><g
     id="g82" /><g
     id="g84" /><g
     id="g86" /><g
     id="g88" /><g
     id="g90" /></svg>