<?xml version="1.0" encoding="iso-8859-1"?>
<!-- Generator: Adobe Illustrator 19.0.0, SVG Export Plug-In . SVG Version: 6.00 Build 0)  -->
<svg xmlns="http://www.w3.org/2000/svg" xmlns:xlink="http://www.w3.org/1999/xlink" version="1.1" id="Capa_1" x="0px" y="0px" viewBox="0 0 460.069 460.069" style="enable-background:new 0 0 460.069 460.069;" xml:space="preserve" width="512px" height="512px">
<g>
	<g id="XMLID_855_">
		<circle id="XMLID_932_" cx="133.853" cy="37.866" r="37.866" fill="#006DF0"/>
		<path id="XMLID_951_" d="M85.015,243.318c0,0,0.008,172.865,0.008,194.825c0,12.109,9.816,21.925,21.925,21.925    s21.925-9.816,21.925-21.925c0-20.608,0-138.304,0-170.32c0-2.721,2.206-4.927,4.927-4.927c2.507,0,4.54,2.032,4.54,4.539    c0,31.397,0,149.949,0,170.708c0,12.109,9.816,21.925,21.925,21.925s21.925-9.816,21.925-21.925l-0.398-203.041    C126.056,264.853,135.708,264.52,85.015,243.318z" fill="#006DF0"/>
		<path id="XMLID_973_" d="M216.795,216.417l-26.856,14.336l0.173,34.482c0.051,10.06,8.22,18.179,18.269,18.179    c0.031,0,0.063,0,0.094,0c10.09-0.051,18.229-8.272,18.179-18.362l-0.281-55.832C223.593,212.069,220.375,214.506,216.795,216.417    z" fill="#006DF0"/>
		<path id="XMLID_1096_" d="M288.406,75.733c20.882,0,37.866-16.933,37.866-37.866C326.272,16.953,309.319,0,288.406,0    c-20.913,0-37.866,16.953-37.866,37.866C250.539,58.778,267.505,75.733,288.406,75.733z" fill="#006DF0"/>
		<path id="XMLID_1100_" d="M292.893,401.325v36.817c0,12.109,9.816,21.925,21.925,21.925s21.925-9.816,21.925-21.925V403.97    h-31.755C300.673,403.97,296.578,403.018,292.893,401.325z" fill="#006DF0"/>
		<path id="XMLID_1107_" d="M429.964,298.515c0-5.014-4.065-9.079-9.079-9.079h-19.99v-20v-3.349    c0-5.878-4.765-10.643-10.643-10.643h-9.094l-0.626-124.622c-0.12-23.721-19.516-43.02-43.237-43.02    c-53.395,0-111.546,0-111.546,0c-7.7,0-14.574,4.827-17.186,12.07l-24.982,69.241l-55.925,29.853l-57.241-23.942    c3.268-11.387,11.589-40.378,14.546-50.68h0.054v34.209l41.557,17.381l40.134-21.424c2.257-6.256,23.465-64.765,24.275-66.676    L71.196,87.802c-8.149,0-15.313,5.397-17.562,13.23c-4.282,14.918-18.617,64.865-22.827,79.535    c-2.509,8.752,1.886,18.254,10.46,21.872c0.018,0.008,0.034,0.017,0.052,0.025l80.007,33.463    c4.877,2.04,10.946,1.968,16.001-0.704c0.022-0.012,0.045-0.021,0.067-0.033l0,0c14.62-7.804,55.611-29.685,69.592-37.148    c4.023-2.148,7.111-5.838,8.583-9.917c3.339-9.256,23.943-63.634,23.998-63.78c0,4.574,0.008,313.799,0.008,313.799    c0,12.109,9.816,21.925,21.925,21.925c12.109,0,21.925-9.816,21.925-21.925V394.38c-4.669-5.161-7.518-11.998-7.518-19.49v-76.375    c0-7.491,2.849-14.329,7.518-19.49c0-2.704,0-7.65,0-11.365c0-2.632,2.134-4.766,4.765-4.766c2.597,0,4.701,2.105,4.701,4.701    c0,1.668,0,3.396,0,4.484c3.315-1.523,6.96-2.443,10.799-2.612v-3.382c0-16.703,13.161-31.928,32.653-31.928V131.103    c0-2.093,1.682-3.797,3.775-3.824s3.819,1.633,3.872,3.727l0.625,124.438h-8.996c-5.878,0-10.643,4.765-10.643,10.643v3.349l0,0    v20h-19.99c-5.014,0-9.079,4.065-9.079,9.079v76.375c0,5.014,4.065,9.079,9.079,9.079h115.897c5.014,0,9.079-4.065,9.079-9.079    v-76.375H429.964z" fill="#006DF0"/>
	</g>
</g>
<g>
</g>
<g>
</g>
<g>
</g>
<g>
</g>
<g>
</g>
<g>
</g>
<g>
</g>
<g>
</g>
<g>
</g>
<g>
</g>
<g>
</g>
<g>
</g>
<g>
</g>
<g>
</g>
<g>
</g>
</svg>
