<?xml version="1.0"?>
<svg xmlns="http://www.w3.org/2000/svg" height="512px" viewBox="0 -29 512.00492 512" width="512px"><path d="m185.964844 45.925781c0 25.367188-20.5625 45.925781-45.925782 45.925781-25.363281 0-45.925781-20.558593-45.925781-45.925781 0-25.363281 20.5625-45.92187475 45.925781-45.92187475 25.363282 0 45.925782 20.55859375 45.925782 45.92187475zm0 0" fill="#006DF0"/><path d="m493.644531 234.917969c-5.628906 0-30.027343 0-44.117187 0 5.007812-.605469 8.890625-4.863281 8.890625-10.035157 0-5.585937-4.53125-10.117187-10.117188-10.117187h-9.265625v-29.621094h57.597656c7.289063 0 13.199219-5.90625 13.199219-13.199219v-96.992187c0-7.289063-5.910156-13.199219-13.199219-13.199219h-170.714843c-7.289063 0-13.199219 5.910156-13.199219 13.199219v96.992187c0 7.289063 5.910156 13.199219 13.199219 13.199219h57.597656v29.621094h-9.265625c-5.585938 0-10.117188 4.527344-10.117188 10.117187 0 5.171876 3.882813 9.425782 8.890626 10.035157-5.015626 0-78.125 0-92.308594 0 4.820312-3.53125 8.105468-9.089844 8.492187-15.523438.695313-11.46875-8.042969-21.328125-19.511719-22.023437l-76.355468-4.613282-49.816406-51.828124 51.054687 32.898437 76.261719 4.609375c4.140625.25 8.097656 1.128906 11.78125 2.535156l6.503906-3.167968c10.332031-5.03125 14.628906-17.484376 9.601562-27.816407-5.03125-10.332031-17.484374-14.628906-27.816406-9.601562l-60.480468 29.449219-26.078126-21.097657c.761719-16.753906-11.960937-31.15625-28.785156-32.347656-15.519531-1.101563-37.140625-2.636719-52.65625-3.738281-18.03125-1.28125-33.359375 13.085937-33.222656 31.179687l1.148438 150.765625h-14.21875l-22.304688-176.144531c-1.195312-9.4375-9.816406-16.125-19.25-14.925781-9.4375 1.195312-16.117188 9.816406-14.925781 19.25l24.214843 191.207031c1.089844 8.609375 8.410157 15.058594 17.085938 15.058594h59.867188v72.742187h-13.699219c-4.058594 0-7.949219 1.609375-10.816407 4.480469l-20.855468 20.855469c-5.972656 5.972656-5.972656 15.660156 0 21.632812 5.972656 5.976563 15.660156 5.976563 21.632812 0l16.375-16.371094h43.835938l16.375 16.371094c5.972656 5.976563 15.660156 5.976563 21.632812 0 5.976563-5.972656 5.976563-15.660156 0-21.632812l-20.851562-20.855469c-2.871094-2.867187-6.761719-4.480469-10.820313-4.480469h-12.210937v-72.742187h47.429687c7.246094 0 13.433594-4.480469 15.976563-10.816407l4.449218 1.148438 14.316407 112.054688c1.753906 13.722656 14.300781 23.347656 27.933593 21.601562 13.679688-1.746094 23.347657-14.253906 21.601563-27.929688l-16.460937-128.839843c-1.296876-10.132813-8.632813-18.457031-18.527344-21.011719l-52.269532-13.492188.660157-9.296874c-.761719-.230469-14.027344.949218-21.710938-11.863282l-41.777343-70.828125 55.449218 57.683594c3.621094 3.769531 8.53125 6.035156 13.746094 6.351563l64.976562 3.925781c-5.175781 3.246093-8.625 8.988281-8.625 15.546875 0 9.898437 8.035157 18.355468 18.359376 18.355468h18.355468v163.246094c0 10.136719 8.21875 18.359375 18.359375 18.359375 10.136719 0 18.355469-8.222656 18.355469-18.359375v-163.246094h132.191406v163.246094c0 10.136719 8.222656 18.359375 18.359375 18.359375s18.359375-8.222656 18.359375-18.359375v-163.246094h12.238282c10.136718 0 18.355468-8.21875 18.355468-18.355468-.003906-10.140625-8.222656-18.359375-18.359375-18.359375zm-77.714843-66.125c-2.78125 2.019531-6.527344 2.019531-9.3125 0-9.058594-6.570313-28.285157-22.378907-29.515626-38.972657h-.046874c0 1.207032 0-34.734374 0-40.121093 0-4.386719 3.558593-7.941407 7.945312-7.941407h52.546875c4.390625 0 7.945313 3.554688 7.945313 7.941407.003906 2.128906.023437 42.519531 0 40.121093h-.042969c-1.230469 16.59375-20.457031 32.402344-29.519531 38.972657zm0 0" fill="#006DF0"/><path d="m428.152344 105.140625-22.359375 22.363281-9.375-9.371094c-1.996094-2-5.238281-2-7.238281 0-1.996094 1.996094-1.996094 5.238282 0 7.238282l12.992187 12.992187c2 1.996094 5.242187 1.996094 7.238281 0l25.984375-25.984375c2-2 2-5.242187 0-7.238281-2-2-5.242187-2-7.242187 0zm0 0" fill="#006DF0"/></svg>
