<?xml version="1.0" encoding="UTF-8" standalone="no"?>
<!-- Generator: Adobe Illustrator 19.0.0, SVG Export Plug-In . SVG Version: 6.00 Build 0)  -->

<svg
   xmlns:dc="http://purl.org/dc/elements/1.1/"
   xmlns:cc="http://creativecommons.org/ns#"
   xmlns:rdf="http://www.w3.org/1999/02/22-rdf-syntax-ns#"
   xmlns:svg="http://www.w3.org/2000/svg"
   xmlns="http://www.w3.org/2000/svg"
   xmlns:sodipodi="http://sodipodi.sourceforge.net/DTD/sodipodi-0.dtd"
   xmlns:inkscape="http://www.inkscape.org/namespaces/inkscape"
   version="1.1"
   id="Capa_1"
   x="0px"
   y="0px"
   viewBox="0 0 512 512"
   style="enable-background:new 0 0 512 512;"
   xml:space="preserve"
   sodipodi:docname="employee (copy).svg"
   inkscape:version="0.92.1 r15371"><metadata
     id="metadata43"><rdf:RDF><cc:Work
         rdf:about=""><dc:format>image/svg+xml</dc:format><dc:type
           rdf:resource="http://purl.org/dc/dcmitype/StillImage" /></cc:Work></rdf:RDF></metadata><defs
     id="defs41" /><sodipodi:namedview
     pagecolor="#ffffff"
     bordercolor="#666666"
     borderopacity="1"
     objecttolerance="10"
     gridtolerance="10"
     guidetolerance="10"
     inkscape:pageopacity="0"
     inkscape:pageshadow="2"
     inkscape:window-width="62"
     inkscape:window-height="62"
     id="namedview39"
     showgrid="false"
     inkscape:zoom="0.4609375"
     inkscape:cx="260.33898"
     inkscape:cy="73.762712"
     inkscape:window-x="0"
     inkscape:window-y="27"
     inkscape:window-maximized="1"
     inkscape:current-layer="Capa_1" /><g
     id="g4"
     style="fill:#0088aa"><path
       inkscape:connector-curvature="0"
       id="path2"
       d="m 421.054,414.843 c -4.142,0 -7.5,3.358 -7.5,7.5 v 70.514 c 0,2.283 -1.858,4.141 -4.141,4.141 H 369.096 V 349.301 c 0,-4.142 -3.358,-7.5 -7.5,-7.5 -4.142,0 -7.5,3.358 -7.5,7.5 v 147.698 h -81.185 l 23.543,-25.9 c 2.572,-2.83 3.785,-6.861 3.244,-10.787 -0.01,-0.076 -0.022,-0.152 -0.035,-0.228 l -22.423,-132.467 6.041,-9.094 c 3.34,2.372 5.913,4.656 10.738,4.656 4.908,0 9.497,-2.747 11.755,-7.269 v -0.001 l 23.65,-47.4 53.876,20.865 c 1.949,0.836 30.252,13.582 30.252,47.238 v 50.73 c -0.001,4.141 3.357,7.5 7.5,7.5 4.142,0 7.5,-3.358 7.5,-7.5 v -50.73 c 0,-44.344 -37.969,-60.463 -39.585,-61.128 -0.047,-0.02 -0.095,-0.039 -0.143,-0.057 l -89.668,-34.726 v -21.03 c 14.242,-11.076 24.117,-27.495 26.596,-46.227 7.101,-0.5 13.69,-3.152 19.071,-7.779 7.027,-6.043 11.059,-14.838 11.059,-24.126 0,-7.708 -2.781,-15.068 -7.737,-20.803 V 92.953 C 348.144,41.699 306.446,0 255.192,0 203.938,0 162.24,41.699 162.24,92.953 v 28.511 c -5.009,5.677 -7.733,12.665 -7.733,20.074 0,9.291 4.03,18.085 11.059,24.129 5.377,4.625 11.962,7.274 19.061,7.775 2.499,19.083 12.662,36.114 28.117,47.339 v 19.92 l -89.571,34.725 c -0.047,0.018 -0.094,0.037 -0.141,0.056 -1.617,0.665 -39.585,16.784 -39.585,61.128 v 156.245 c 0,10.555 8.587,19.142 19.142,19.142 h 71.457 c 4.142,0 7.5,-3.358 7.5,-7.5 0,-4.142 -3.358,-7.5 -7.5,-7.5 H 157.909 V 349.301 c 0,-4.142 -3.358,-7.5 -7.5,-7.5 -4.142,0 -7.5,3.358 -7.5,7.5 V 496.999 H 102.59 c -2.283,0 -4.141,-1.858 -4.141,-4.141 V 336.611 c 0,-33.769 28.493,-46.486 30.243,-47.234 l 53.834,-20.87 23.652,47.402 c 2.263,4.533 6.858,7.27 11.756,7.27 4.801,0 7.349,-2.249 10.738,-4.656 l 6.041,9.094 -22.421,132.468 c -0.013,0.075 -0.024,0.15 -0.035,0.226 -0.542,3.924 0.671,7.957 3.244,10.789 l 23.543,25.9 h -29.995 c -4.142,0 -7.5,3.358 -7.5,7.5 0,4.142 3.358,7.5 7.5,7.5 h 200.365 c 10.555,0 19.142,-8.588 19.142,-19.142 v -70.514 c -0.002,-4.143 -3.36,-7.501 -7.502,-7.501 z m -105.679,-151.774 -22.049,44.19 c -0.548,-0.389 -12.233,-8.691 -26.517,-18.834 6.198,-7.651 -1.053,1.299 27.235,-33.617 z m -44.332,46.764 -5.718,8.607 h -18.703 l -5.718,-8.607 15.07,-10.703 z m -43.3,-66.712 v -14.036 c 9.112,3.673 18.85,5.376 28.36,5.376 9.833,0 19.476,-2.096 28.052,-5.846 v 14.567 l -28.181,34.785 z M 340.881,141.539 c -10e-4,4.913 -2.129,9.562 -5.839,12.753 -2.453,2.11 -5.416,3.459 -8.661,3.987 v -33.477 c 8.62,1.4 14.5,8.55 14.5,16.737 z m -156.874,16.74 c -8.718,-1.415 -14.5,-8.623 -14.5,-16.741 0,-8.018 6.647,-14.544 14.5,-16.359 z m 0.403,-48.383 c -2.389,0.274 -5.127,0.921 -7.168,1.615 V 92.953 c 0,-42.983 34.968,-77.952 77.951,-77.952 42.983,0 77.951,34.969 77.951,77.952 v 18.043 c -2.18,-0.663 -4.441,-1.101 -6.762,-1.307 0,-7.237 0.063,-5.841 -23.612,-31.294 -4.354,-4.678 -11.556,-5.658 -17.037,-2.077 -26.13,17.069 -58.005,25.644 -87.415,23.532 -6.451,-0.483 -12.327,3.766 -13.908,10.046 z m 14.598,54.288 v -46.792 -2.465 c 32.375,1.896 66.318,-7.722 93.739,-25.283 10.858,11.658 16.738,17.773 18.634,20.099 0,5.884 0,47.705 0,54.44 0,30.447 -24.826,55.276 -55.277,55.276 -34.194,0.001 -57.096,-26.525 -57.096,-55.275 z m 19.615,143.075 -22.049,-44.19 21.293,-8.247 27.241,33.625 c -13.853,9.837 -25.228,17.919 -26.485,18.812 z m 8.605,154.443 21.709,-128.263 h 14.071 l 21.709,128.263 -28.744,31.623 z"
       style="fill:#0088aa" /></g><g
     id="g8" /><g
     id="g10" /><g
     id="g12" /><g
     id="g14" /><g
     id="g16" /><g
     id="g18" /><g
     id="g20" /><g
     id="g22" /><g
     id="g24" /><g
     id="g26" /><g
     id="g28" /><g
     id="g30" /><g
     id="g32" /><g
     id="g34" /><g
     id="g36" /></svg>
