<svg height="30pt" viewBox="0 0 512 512" width="35pt" xmlns="http://www.w3.org/2000/svg"><path d="m512 30.90625v450.1875c0 17.070312-13.835938 30.90625-30.90625 30.90625h-450.1875c-17.070312 0-30.90625-13.835938-30.90625-30.90625v-450.1875c0-17.070312 13.835938-30.90625 30.90625-30.90625h450.1875c17.070312 0 30.90625 13.835938 30.90625 30.90625zm0 0" fill="#1680f6"/><path d="m64.222656 512h-33.316406c-17.070312 0-30.90625-13.835938-30.90625-30.90625v-450.1875c0-17.070312 13.835938-30.90625 30.90625-30.90625h33.316406c-17.070312 0-30.90625 13.835938-30.90625 30.90625v450.1875c0 17.070312 13.835938 30.90625 30.90625 30.90625zm0 0" fill="#439ef4"/><path d="m512 30.90625v450.1875c0 17.070312-13.835938 30.90625-30.90625 30.90625h-199.03125c152.582031-175.789062 169.96875-420.992188 170.824219-512h28.207031c17.070312 0 30.90625 13.835938 30.90625 30.90625zm0 0" fill="#4c60dc"/><path d="m447.488281 254.847656c.371094 63.921875-30.214843 120.488282-77.808593 155.515625-8.261719 6.078125-17.039063 11.515625-26.257813 16.214844-1.320313.6875-2.660156 1.347656-4.007813 1.996094-24.621093 11.859375-52.230468 18.605469-81.476562 18.90625-36.613281.359375-70.886719-9.558594-100.113281-27.0625l-60.707031 11.054687c-7.75 1.410156-14.527344-5.367187-13.113282-13.117187l10.742188-59.046875c-19.542969-30.433594-30.710938-66.769532-30.222656-105.738282 1.285156-103.605468 88.941406-189.636718 192.546874-189.058593 79.789063.429687 148.027344 49.671875 176.359376 119.386719 1.65625 4.039062 3.160156 8.136718 4.53125 12.3125 1.710937 5.230468 3.226562 10.558593 4.492187 15.984374 3.214844 13.703126 4.945313 27.992188 5.035156 42.652344zm0 0" fill="#439ef4"/><path d="m447.488281 254.847656c.371094 63.921875-30.214843 120.488282-77.808593 155.515625-8.261719 6.078125-17.039063 11.515625-26.257813 16.214844 47.550781-80.230469 74.667969-166.582031 90.007813-242.679687 1.65625 4.035156 3.160156 8.136718 4.53125 12.308593 1.710937 5.234375 3.226562 10.558594 4.492187 15.988281 3.214844 13.703126 4.945313 27.992188 5.035156 42.652344zm0 0" fill="#1680f6"/><path d="m280.703125 334.644531c-5.648437 0-10.964844-2.199219-14.960937-6.1875l-48.953126-48.800781-61.550781 23.082031c-2.460937.921875-5.007812 1.390625-7.566406 1.390625-8.496094 0-16.136719-5.160156-19.46875-13.144531-3.332031-7.988281-1.59375-16.800781 4.535156-22.992187l83.496094-84.351563c4.011719-4.050781 9.359375-6.285156 15.0625-6.285156 5.648437 0 10.960937 2.199219 14.960937 6.1875l48.949219 48.804687 61.554688-23.085937c2.460937-.921875 5.003906-1.390625 7.5625-1.390625 8.496093 0 16.140625 5.160156 19.46875 13.144531 3.335937 7.988281 1.597656 16.800781-4.53125 22.992187l-83.5 84.355469c-4.007813 4.050781-9.359375 6.28125-15.058594 6.28125zm0 0" fill="#1680f6"/><path d="m361.464844 221.800781-69.617188 26.105469-55.046875-54.882812c-3.058593-3.046876-8.007812-3.03125-11.046875.035156l-83.496094 84.355468c-5.882812 5.941407.449219 15.71875 8.277344 12.78125l69.617188-26.105468 55.046875 54.882812c3.058593 3.050782 8.007812 3.035156 11.046875-.035156l83.496094-84.351562c5.882812-5.941407-.449219-15.71875-8.277344-12.785157zm0 0" fill="#deefff"/></svg>
