<?xml version="1.0"?>
<svg xmlns="http://www.w3.org/2000/svg" height="512px" viewBox="0 -10 512.002 512" width="512px"><path d="m272.796875 326.402344 17.78125-12.648438h-74.6875c-.023437 4.289063-.585937-2.304687 20.472656 134.742188 2.3125 14.945312 16.304688 25.136718 31.191407 22.832031 14.917968-2.308594 25.140624-16.269531 22.832031-31.1875zm0 0" fill="#006DF0"/><path d="m345.875 313.753906 18 12.710938-17.582031 113.675781c-2.304688 14.917969 7.917969 28.882813 22.835937 31.1875 14.914063 2.308594 28.878906-7.917969 31.1875-22.832031 21.113282-137.398438 20.5-130.476563 20.476563-134.738282h-74.917969zm0 0" fill="#006DF0"/><path d="m371.234375 50.359375c0 27.8125-22.546875 50.359375-50.359375 50.359375s-50.359375-22.546875-50.359375-50.359375 22.546875-50.359375 50.359375-50.359375 50.359375 22.546875 50.359375 50.359375zm0 0" fill="#006DF0"/><path d="m502.027344 242.074219h-23.402344c4.152344-.460938 7.382812-3.976563 7.382812-8.25v-88.542969c0-4.585938-3.71875-8.300781-8.304687-8.300781h-147.65625c-4.582031 0-8.300781 3.714843-8.300781 8.300781v88.542969c0 4.273437 3.230468 7.789062 7.378906 8.25h-22.617188v-15.765625l-32.960937 15.765625h-29.714844c3.660157-1.144531.644531-.085938 62.921875-31.121094v-55.789063l-41.1875 20.609376c.984375-10.164063 7.109375-19.113282 16.226563-23.710938l25.816406-13.015625c2.734375-9.824219 11.753906-17.054687 22.4375-17.054687h93.019531c-8.1875-19.859376-24.160156-34.574219-43.023437-41.667969-10.96875 21.566406-33.363281 36.382812-59.167969 36.382812-25.082031 0-46.949219-13.988281-58.226562-34.574219-22.761719 4.402344-40.398438 23.191407-42.710938 47.121094-3.515625 36.382813-6.367188 65.867188-8.371094 86.613282-1.140625 11.8125 6.171875 22.699218 17.386719 26.207031h-57.871094c6.265625-1.953125 10.816407-7.796875 10.816407-14.707031v-101.433594c0-8.507813-6.894532-15.402344-15.402344-15.402344h-121.660156c-8.507813 0-15.402344 6.894531-15.402344 15.402344v101.433594c0 6.90625 4.546875 12.753906 10.816406 14.707031h-30.277344c-5.507812 0-9.972656 4.464843-9.972656 9.972656v36.054687c0 5.511719 4.464844 9.976563 9.972656 9.976563h18.886719v172.886719c0 11.007812 8.558594 20.378906 19.554687 20.769531 11.546876.410156 21.035157-8.828125 21.035157-20.28125v-173.375h373.101562v172.886719c0 11.007812 8.558594 20.378906 19.558594 20.769531 11.542969.410156 21.035156-8.828125 21.035156-20.28125v-173.375h18.882813c5.507812 0 9.976562-4.464844 9.976562-9.972656v-36.058594c-.003906-5.507813-4.46875-9.972656-9.976562-9.972656zm-340.835938-33.808594h-.84375c-1.839844 0-3.332031 1.492187-3.332031 3.332031v27.839844c0 1.839844-1.492187 3.328125-3.332031 3.328125h-19.871094c-1.839844 0-3.328125-1.488281-3.328125-3.328125v-27.839844c0-1.839844-1.492187-3.332031-3.332031-3.332031h-.847656c-2.96875 0-4.453126-3.589844-2.355469-5.6875l17.445312-17.445313c1.300781-1.300781 3.410157-1.300781 4.710938 0l17.441406 17.445313c2.101563 2.097656.613281 5.6875-2.355469 5.6875zm242.683594-2.578125c-8.90625 0-16.132812-7.222656-16.132812-16.132812 0-8.910157 7.222656-16.132813 16.132812-16.132813s16.136719 7.222656 16.136719 16.132813c0 8.910156-7.226563 16.132812-16.136719 16.132812zm0 0" fill="#006DF0"/></svg>
