<?xml version="1.0" encoding="UTF-8" standalone="no"?>
<!-- Generator: Adobe Illustrator 19.0.0, SVG Export Plug-In . SVG Version: 6.00 Build 0)  -->

<svg
   xmlns:dc="http://purl.org/dc/elements/1.1/"
   xmlns:cc="http://creativecommons.org/ns#"
   xmlns:rdf="http://www.w3.org/1999/02/22-rdf-syntax-ns#"
   xmlns:svg="http://www.w3.org/2000/svg"
   xmlns="http://www.w3.org/2000/svg"
   xmlns:sodipodi="http://sodipodi.sourceforge.net/DTD/sodipodi-0.dtd"
   xmlns:inkscape="http://www.inkscape.org/namespaces/inkscape"
   version="1.1"
   id="Capa_1"
   x="0px"
   y="0px"
   viewBox="0 0 487.316 487.316"
   style="enable-background:new 0 0 487.316 487.316;"
   xml:space="preserve"
   sodipodi:docname="jigsaw (copy).svg"
   inkscape:version="0.92.1 r15371"><metadata
     id="metadata49"><rdf:RDF><cc:Work
         rdf:about=""><dc:format>image/svg+xml</dc:format><dc:type
           rdf:resource="http://purl.org/dc/dcmitype/StillImage" /></cc:Work></rdf:RDF></metadata><defs
     id="defs47" /><sodipodi:namedview
     pagecolor="#ffffff"
     bordercolor="#666666"
     borderopacity="1"
     objecttolerance="10"
     gridtolerance="10"
     guidetolerance="10"
     inkscape:pageopacity="0"
     inkscape:pageshadow="2"
     inkscape:window-width="62"
     inkscape:window-height="47"
     id="namedview45"
     showgrid="false"
     inkscape:zoom="0.48428534"
     inkscape:cx="243.658"
     inkscape:cy="161.06207"
     inkscape:window-x="0"
     inkscape:window-y="27"
     inkscape:window-maximized="1"
     inkscape:current-layer="Capa_1" /><g
     id="g6"
     style="fill:#0088aa"><g
       id="g4"
       style="fill:#0088aa"><path
         d="M347.658,0h-288c-30.911,0.04-55.96,25.089-56,56v287.336c0.04,30.911,25.089,55.96,56,56h88v-16h-88    c-22.08-0.026-39.974-17.92-40-40V208h51.376c4.741-0.347,8.304-4.471,7.957-9.213c-0.067-0.914-0.279-1.812-0.629-2.659    c-7.11-16.18,0.242-35.06,16.422-42.17c16.18-7.11,35.06,0.242,42.17,16.422c3.605,8.204,3.605,17.544,0,25.748    c-1.976,4.134-0.226,9.087,3.908,11.063c1.069,0.511,2.236,0.787,3.42,0.81h51.376v48c-2.643-0.45-5.319-0.672-8-0.664    c-26.51-0.009-48.007,21.474-48.017,47.983c-0.007,19.099,11.31,36.384,28.817,44.017l6.4-14.656    c-16.206-7.05-23.629-25.902-16.58-42.108c5.086-11.693,16.629-19.25,29.38-19.236c4.409-0.001,8.769,0.92,12.8,2.704    c4.049,1.767,8.765-0.083,10.532-4.132c0.44-1.008,0.667-2.096,0.668-3.196V208h40.68c-0.455,2.642-0.683,5.319-0.68,8    c0.048,22.794,16.077,42.43,38.4,47.04l3.2-15.672c-14.882-3.079-25.567-16.171-25.6-31.368c-0.001-4.409,0.92-8.769,2.704-12.8    c1.767-4.049-0.083-8.765-4.132-10.532c-1.008-0.44-2.096-0.667-3.196-0.668h-51.376v-40.68c2.642,0.455,5.319,0.683,8,0.68    c26.51,0,48-21.49,48-48s-21.49-48-48-48c-2.681-0.003-5.358,0.225-8,0.68V16h136c22.08,0.026,39.974,17.92,40,40v136h-51.376    c-4.418,0.002-7.998,3.586-7.996,8.004c0.001,1.1,0.228,2.188,0.668,3.196c1.784,4.031,2.705,8.391,2.704,12.8h16    c0.003-2.681-0.225-5.358-0.68-8h48.68c4.418,0,8-3.582,8-8V56C403.618,25.089,378.569,0.04,347.658,0z M219.658,72    c17.673,0,32,14.327,32,32s-14.327,32-32,32c-4.409,0.001-8.769-0.92-12.8-2.704c-4.049-1.767-8.765,0.083-10.532,4.132    c-0.44,1.008-0.667,2.096-0.668,3.196v50.712h-40.624c0.401-2.425,0.609-4.878,0.624-7.336c0-0.144,0-0.272,0-0.416    s0-0.168,0-0.248c0-26.51-21.49-48-48-48c-26.51,0-48,21.49-48,48c0,0.08,0,0.168,0,0.248s0,0.272,0,0.416    c0.015,2.458,0.223,4.911,0.624,7.336H19.658V56c0.026-22.08,17.92-39.974,40-40h136v51.376c0.002,4.418,3.586,7.998,8.004,7.996    c1.1-0.001,2.188-0.228,3.196-0.668C210.889,72.92,215.249,71.999,219.658,72z"
         id="path2"
         style="fill:#0088aa" /></g></g><path
     d="M 466.546,343.856 399.29,297.544 373.458,228.528 c -1.541,-4.141 -6.147,-6.248 -10.288,-4.707 -0.148,0.055 -0.295,0.115 -0.44,0.179 l -52,23 c -3.898,1.721 -5.762,6.196 -4.24,10.176 0.864,2.24 1.672,3.936 2.528,5.696 0.856,1.76 1.648,3.408 2.616,6.008 6.21,16.593 -2.151,35.087 -18.712,41.384 -16.553,6.191 -34.991,-2.208 -41.183,-18.762 -1.553,-4.152 -2.226,-8.581 -1.977,-13.006 0.232,-4.412 -3.157,-8.177 -7.569,-8.409 -1.106,-0.058 -2.211,0.114 -3.247,0.505 l -55.584,20.936 c -4.127,1.555 -6.217,6.157 -4.672,10.288 l 19.952,53.304 c -2.645,0.482 -5.242,1.199 -7.76,2.144 -24.895,9.277 -37.555,36.979 -28.278,61.874 9.277,24.895 36.979,37.555 61.874,28.278 2.563,-0.955 5.04,-2.127 7.404,-3.504 l 14.304,38.208 c 1.55,4.138 6.16,6.235 10.298,4.685 0.005,-0.002 0.009,-0.004 0.014,-0.005 l 79.264,-29.864 c 4.979,10.702 14.141,18.883 25.336,22.624 l 5.056,-15.2 c -6.594,-2.222 -12.074,-6.905 -15.296,-13.072 l 24.12,-9.08 c 7.923,22.285 29.029,37.159 52.68,37.128 v -16 c -22.035,-0.135 -39.865,-17.965 -40,-40 0,-2.122 -0.844,-4.156 -2.344,-5.656 l -27.856,-27.856 c -4.13,-4.166 -4.596,-10.724 -1.096,-15.432 2.038,-2.751 5.184,-4.465 8.6,-4.688 3.421,-0.288 6.79,0.972 9.184,3.432 l 55.856,55.856 11.312,-11.312 -16.528,-16.528 c 4.072,-12.177 3.821,-25.386 -0.712,-37.4 L 409.082,323.712 457.426,357 c 6.408,4.498 10.226,11.835 10.232,19.664 V 480 h 16 V 376.664 c -0.011,-13.073 -6.398,-25.318 -17.112,-32.808 z M 409.09,369.36 c 2.21,5.874 3.01,12.184 2.336,18.424 l -25.968,-25.96 c -10.719,-10.993 -28.319,-11.214 -39.312,-0.496 -10.993,10.719 -11.214,28.319 -0.496,39.312 0.163,0.167 0.328,0.333 0.496,0.496 L 371.45,426.44 258.394,469.024 243.146,428.28 c -0.949,-2.532 -3.113,-4.412 -5.752,-5 -0.57,-0.126 -1.152,-0.191 -1.736,-0.192 -2.093,-0.002 -4.103,0.817 -5.6,2.28 -12.846,12.137 -33.1,11.562 -45.237,-1.285 -12.137,-12.846 -11.562,-33.1 1.285,-45.237 3.022,-2.855 6.57,-5.093 10.448,-6.591 2.547,-0.944 5.207,-1.546 7.912,-1.792 1.664,-0.204 3.342,-0.26 5.016,-0.168 4.412,0.231 8.177,-3.158 8.408,-7.57 0.058,-1.097 -0.111,-2.194 -0.496,-3.222 l -20.896,-55.792 38.096,-14.344 c 5,26.034 30.158,43.085 56.192,38.086 2.66,-0.511 5.272,-1.246 7.808,-2.198 24.807,-9.412 37.346,-37.099 28.056,-61.952 -0.736,-1.968 -1.4,-3.528 -2.04,-4.92 l 36.8,-16.296 z"
     id="path8"
     inkscape:connector-curvature="0"
     style="fill:#0088aa" /><g
     id="g14" /><g
     id="g16" /><g
     id="g18" /><g
     id="g20" /><g
     id="g22" /><g
     id="g24" /><g
     id="g26" /><g
     id="g28" /><g
     id="g30" /><g
     id="g32" /><g
     id="g34" /><g
     id="g36" /><g
     id="g38" /><g
     id="g40" /><g
     id="g42" /></svg>
