<?xml version="1.0" encoding="UTF-8" standalone="no"?>
<!-- Generator: Adobe Illustrator 19.0.0, SVG Export Plug-In . SVG Version: 6.00 Build 0)  -->

<svg
   xmlns:dc="http://purl.org/dc/elements/1.1/"
   xmlns:cc="http://creativecommons.org/ns#"
   xmlns:rdf="http://www.w3.org/1999/02/22-rdf-syntax-ns#"
   xmlns:svg="http://www.w3.org/2000/svg"
   xmlns="http://www.w3.org/2000/svg"
   xmlns:sodipodi="http://sodipodi.sourceforge.net/DTD/sodipodi-0.dtd"
   xmlns:inkscape="http://www.inkscape.org/namespaces/inkscape"
   version="1.1"
   id="Capa_1"
   x="0px"
   y="0px"
   viewBox="0 0 512 512"
   style="enable-background:new 0 0 512 512;"
   xml:space="preserve"
   width="512px"
   height="512px"
   sodipodi:docname="strateg.svg"
   inkscape:version="0.92.1 r15371"><metadata
     id="metadata151"><rdf:RDF><cc:Work
         rdf:about=""><dc:format>image/svg+xml</dc:format><dc:type
           rdf:resource="http://purl.org/dc/dcmitype/StillImage" /><dc:title></dc:title></cc:Work></rdf:RDF></metadata><defs
     id="defs149" /><sodipodi:namedview
     pagecolor="#ffffff"
     bordercolor="#666666"
     borderopacity="1"
     objecttolerance="10"
     gridtolerance="10"
     guidetolerance="10"
     inkscape:pageopacity="0"
     inkscape:pageshadow="2"
     inkscape:window-width="1440"
     inkscape:window-height="836"
     id="namedview147"
     showgrid="false"
     inkscape:zoom="0.921875"
     inkscape:cx="267.52153"
     inkscape:cy="195.85292"
     inkscape:window-x="0"
     inkscape:window-y="27"
     inkscape:window-maximized="1"
     inkscape:current-layer="Capa_1" /><g
     id="g4"
     transform="matrix(0.99576271,0,0,0.99569076,1.0847458,2.1694916)"
     style="fill:#000080"><path
       style="fill:#000080"
       inkscape:connector-curvature="0"
       id="path2"
       d="M 482.882,190.828 C 465.657,130.754 424.231,79.018 369.225,48.886 c -4.844,-2.65 -10.921,-0.877 -13.575,3.966 -2.653,4.843 -0.878,10.921 3.966,13.575 50.356,27.585 88.277,74.937 104.042,129.913 1.258,4.389 5.259,7.247 9.607,7.247 0.912,0 1.841,-0.126 2.761,-0.391 5.31,-1.521 8.379,-7.06 6.856,-12.368 z" /></g><path
     d="m 328.98244,33.639294 -0.44411,-0.145371 c -5.23871,-1.680726 -10.84486,1.200803 -12.5257,6.436145 -1.68085,5.235342 1.19989,10.842077 6.43561,12.524794 l 0.35848,0.1155 c 1.02563,0.334552 2.0662,0.493863 3.08985,0.493863 4.19315,0 8.09455,-2.670443 9.46472,-6.872258 1.70574,-5.228372 -1.1511,-10.849046 -6.37885,-12.552673 z"
     id="path8"
     inkscape:connector-curvature="0"
     style="fill:#000080;stroke-width:0.9957267" /><g
     id="g16"
     transform="matrix(0.99576271,0,0,0.99569076,1.0847458,2.1694916)"><path
       style="fill:#006df0"
       inkscape:connector-curvature="0"
       id="path14"
       d="m 45.765,172.301 c -5.22,-1.813 -10.916,0.945 -12.729,6.161 -1.938,5.575 -3.686,11.289 -5.192,16.983 -1.413,5.338 1.769,10.812 7.108,12.225 0.857,0.228 1.718,0.336 2.565,0.336 4.427,0 8.475,-2.963 9.66,-7.444 1.379,-5.207 2.977,-10.434 4.749,-15.532 1.813,-5.217 -0.944,-10.916 -6.161,-12.729 z" /></g><g
     id="g22"
     transform="matrix(0.99576271,0,0,0.99569076,1.0847458,2.1694916)"><path
       style="fill:#006df0"
       inkscape:connector-curvature="0"
       id="path20"
       d="m 80.052,113.796 c -4.439,-3.282 -10.702,-2.343 -13.984,2.102 -3.505,4.743 -6.87,9.675 -10.003,14.659 -2.94,4.675 -1.533,10.848 3.143,13.788 1.653,1.04 3.494,1.535 5.313,1.535 3.324,0 6.576,-1.656 8.476,-4.679 2.868,-4.563 5.949,-9.077 9.157,-13.421 3.282,-4.441 2.341,-10.703 -2.102,-13.984 z" /></g><g
     id="g28"
     transform="matrix(0.99576271,0,0,0.99569076,1.0847458,2.1694916)"><path
       style="fill:#006df0"
       inkscape:connector-curvature="0"
       id="path26"
       d="m 191.408,39.131 c -1.808,-5.218 -7.505,-7.982 -12.724,-6.173 -5.569,1.931 -11.133,4.098 -16.536,6.442 -5.067,2.198 -7.393,8.087 -5.194,13.153 1.635,3.772 5.314,6.025 9.178,6.025 1.328,0 2.679,-0.267 3.975,-0.829 4.943,-2.145 10.033,-4.127 15.128,-5.894 5.218,-1.809 7.982,-7.506 6.173,-12.724 z" /></g><g
     id="g34"
     transform="matrix(0.99576271,0,0,0.99569076,1.0847458,2.1694916)"><path
       style="fill:#006df0"
       inkscape:connector-curvature="0"
       id="path32"
       d="m 130.086,68.034 c -3.277,-4.446 -9.537,-5.395 -13.983,-2.116 -4.74,3.495 -9.409,7.214 -13.877,11.055 -4.188,3.6 -4.665,9.914 -1.064,14.102 1.977,2.299 4.774,3.48 7.587,3.48 2.308,0 4.627,-0.795 6.514,-2.417 4.091,-3.517 8.366,-6.922 12.707,-10.121 4.445,-3.277 5.393,-9.537 2.116,-13.983 z" /></g><g
     id="g40"
     transform="matrix(0.99576271,0,0,0.99569076,1.0847458,2.1694916)"
     style="fill:#00ccff"><path
       style="fill:#00ccff"
       inkscape:connector-curvature="0"
       id="path38"
       d="m 30,226 c -16.542,0 -30,13.458 -30,30 0,16.542 13.458,30 30,30 16.542,0 30,-13.458 30,-30 0,-16.542 -13.458,-30 -30,-30 z m 0,40 c -5.514,0 -10,-4.486 -10,-10 0,-5.514 4.486,-10 10,-10 5.514,0 10,4.486 10,10 0,5.514 -4.486,10 -10,10 z" /></g><path
     d="m 481.04237,227.1956 c -16.4719,0 -29.87288,13.40001 -29.87288,29.87073 0,16.47071 13.40098,29.87072 29.87288,29.87072 16.47191,0 29.87288,-13.40001 29.87288,-29.87072 0,-16.47072 -13.40097,-29.87073 -29.87288,-29.87073 z m 0,39.82763 c -5.49063,0 -9.95763,-4.46666 -9.95763,-9.9569 0,-5.49024 4.467,-9.95691 9.95763,-9.95691 5.49064,0 9.95763,4.46667 9.95763,9.95691 0,5.49024 -4.46699,9.9569 -9.95763,9.9569 z"
     id="path44"
     inkscape:connector-curvature="0"
     style="fill:#214478;stroke-width:0.9957267" /><g
     style="fill:#0066ff"
     id="g52"
     transform="matrix(0.99576271,0,0,0.99569076,-8.6365987,2.1694916)"><path
       style="fill:#0066ff"
       inkscape:connector-curvature="0"
       id="path50"
       d="m 256,0 c -16.542,0 -30,13.458 -30,30 0,16.542 13.458,30 30,30 16.542,0 30,-13.458 30,-30 C 286,13.458 272.542,0 256,0 Z m 0,40 c -5.514,0 -10,-4.486 -10,-10 0,-5.514 4.486,-10 10,-10 5.514,0 10,4.486 10,10 0,5.514 -4.486,10 -10,10 z" /></g><g
     id="g58"
     transform="matrix(0.99576271,0,0,0.99569076,1.0847458,2.1694916)"
     style="fill:#00ccff"><path
       style="fill:#00ccff"
       inkscape:connector-curvature="0"
       id="path56"
       d="m 153.612,446.241 c -50.991,-27.504 -89.36,-75.1 -105.271,-130.582 -1.521,-5.308 -7.057,-8.382 -12.369,-6.855 -5.309,1.522 -8.378,7.06 -6.855,12.369 17.384,60.625 59.301,112.627 115.001,142.672 1.51,0.813 3.136,1.2 4.738,1.2 3.558,0 7.003,-1.903 8.811,-5.255 2.621,-4.86 0.807,-10.927 -4.055,-13.549 z" /></g><g
     id="g64"
     transform="matrix(0.99576271,0,0,0.99569076,1.0847458,2.1694916)"
     style="fill:#00ccff"><path
       style="fill:#00ccff"
       inkscape:connector-curvature="0"
       id="path62"
       d="m 189.307,461.51 -0.285,-0.093 c -5.261,-1.69 -10.892,1.199 -12.583,6.456 -1.691,5.257 1.198,10.891 6.456,12.583 l 0.221,0.071 c 1.028,0.335 2.071,0.494 3.098,0.494 4.213,0 8.132,-2.685 9.507,-6.907 1.709,-5.251 -1.162,-10.894 -6.414,-12.604 z" /></g><g
     id="g70"
     transform="matrix(0.99576271,0,0,0.99569076,1.0847458,2.1694916)"
     style="fill:#0088aa"><path
       style="fill:#0088aa"
       inkscape:connector-curvature="0"
       id="path68"
       d="m 355.046,459.447 c -2.199,-5.066 -8.087,-7.396 -13.152,-5.196 -4.943,2.145 -10.033,4.127 -15.128,5.894 -5.218,1.809 -7.982,7.506 -6.173,12.724 1.433,4.134 5.306,6.728 9.448,6.728 1.086,0 2.191,-0.179 3.275,-0.555 5.569,-1.931 11.133,-4.098 16.536,-6.442 5.067,-2.198 7.393,-8.087 5.194,-13.153 z" /></g><g
     id="g76"
     transform="matrix(0.99576271,0,0,0.99569076,1.0847458,2.1694916)"
     style="fill:#0088aa"><path
       style="fill:#0088aa"
       inkscape:connector-curvature="0"
       id="path74"
       d="m 452.792,367.655 c -4.676,-2.941 -10.85,-1.532 -13.788,3.144 -2.868,4.563 -5.949,9.077 -9.157,13.421 -3.282,4.441 -2.341,10.703 2.102,13.984 1.787,1.321 3.869,1.958 5.934,1.958 3.064,0 6.09,-1.404 8.051,-4.06 3.505,-4.743 6.87,-9.675 10.003,-14.659 2.938,-4.675 1.531,-10.848 -3.145,-13.788 z" /></g><g
     id="g82"
     transform="matrix(0.99576271,0,0,0.99569076,1.0847458,2.1694916)"
     style="fill:#0088aa"><path
       style="fill:#0088aa"
       inkscape:connector-curvature="0"
       id="path80"
       d="m 410.839,420.925 c -3.6,-4.187 -9.914,-4.662 -14.102,-1.063 -4.091,3.517 -8.366,6.922 -12.707,10.121 -4.445,3.277 -5.393,9.537 -2.116,13.983 1.961,2.66 4.988,4.067 8.058,4.067 2.061,0 4.14,-0.635 5.926,-1.951 4.74,-3.495 9.409,-7.214 13.877,-11.055 4.188,-3.6 4.665,-9.914 1.064,-14.102 z" /></g><g
     id="g88"
     transform="matrix(0.99576271,0,0,0.99569076,1.0847458,2.1694916)"
     style="fill:#0088aa"><path
       style="fill:#0088aa"
       inkscape:connector-curvature="0"
       id="path86"
       d="m 477.048,304.33 c -5.337,-1.416 -10.813,1.769 -12.226,7.108 -1.379,5.207 -2.977,10.434 -4.749,15.532 -1.813,5.217 0.944,10.916 6.161,12.729 1.088,0.378 2.194,0.558 3.284,0.558 4.139,0 8.01,-2.59 9.445,-6.719 1.938,-5.575 3.686,-11.289 5.192,-16.983 1.414,-5.338 -1.768,-10.812 -7.107,-12.225 z" /></g><path
     d="m 244.0678,453.20339 c -15.70089,0 -28.47458,12.94477 -28.47458,28.85593 0,15.91116 12.77369,28.85594 28.47458,28.85594 15.70088,0 28.47457,-12.94478 28.47457,-28.85594 0,-15.91116 -12.77369,-28.85593 -28.47457,-28.85593 z m 0,38.47458 c -5.23363,0 -9.49153,-4.31493 -9.49153,-9.61865 0,-5.30372 4.2579,-9.61864 9.49153,-9.61864 5.23362,0 9.49152,4.31492 9.49152,9.61864 0,5.30372 -4.2579,9.61865 -9.49152,9.61865 z"
     id="path92"
     inkscape:connector-curvature="0"
     style="fill:#2c89a0;stroke-width:0.95548731" /><g
     id="g100"
     transform="matrix(0.99576271,0,0,0.99569076,1.0847458,2.1694916)"><path
       style="fill:#006df0"
       inkscape:connector-curvature="0"
       id="path98"
       d="m 304.576,246 h -4.115 c 9.366,-10.522 15.072,-24.371 15.072,-39.533 v -21.039 -9.734 -2.19 c 0,-32.827 -26.706,-59.533 -59.533,-59.533 -32.827,0 -59.533,26.706 -59.533,59.533 v 2.19 9.734 21.039 c 0,15.162 5.706,29.011 15.072,39.533 h -4.115 c -40.804,0 -74,33.196 -74,74 v 49.97 c 0,5.522 4.478,10 10,10 h 225.152 c 5.522,0 10,-4.478 10,-10 V 320 c 0,-40.804 -33.196,-74 -74,-74 z M 256,133.97 c 19.829,0 36.296,14.676 39.109,33.735 l -17.646,-10.367 c -4.21,-2.475 -9.593,-1.544 -12.73,2.199 -8.462,10.099 -20.871,15.891 -34.047,15.891 h -14.219 v -1.925 0 c 0,-21.799 17.734,-39.533 39.533,-39.533 z m -39.533,61.458 h 14.219 c 16.225,0 31.649,-6.057 43.447,-16.851 l 21.4,12.573 v 15.316 c 0,21.8 -17.734,39.534 -39.533,39.534 -21.799,0 -39.533,-17.734 -39.533,-39.533 z M 358.576,359.97 H 153.424 V 320 c 0,-29.775 24.225,-54 54,-54 H 246 v 42 c 0,5.522 4.478,10 10,10 5.522,0 10,-4.478 10,-10 v -42 h 38.576 c 29.775,0 54,24.225 54,54 z" /></g><g
     id="g106"
     transform="matrix(0.99576271,0,0,0.99569076,1.0847458,2.1694916)"><path
       style="fill:#006df0"
       inkscape:connector-curvature="0"
       id="path104"
       d="m 182.204,199.794 -13.266,-13.267 c -1.875,-1.876 -4.419,-2.93 -7.071,-2.93 -2.652,0 -5.195,1.054 -7.071,2.929 L 92.661,248.66 c -3.905,3.905 -3.905,10.237 0,14.143 1.954,1.954 4.513,2.93 7.072,2.93 2.559,0 5.118,-0.977 7.071,-2.929 l 55.063,-55.063 6.194,6.195 c 3.906,3.904 10.236,3.906 14.143,0 3.905,-3.905 3.905,-10.236 0,-14.142 z" /></g><g
     id="g112"
     transform="matrix(0.99576271,0,0,0.99569076,1.0847458,2.1694916)"><path
       style="fill:#006df0"
       inkscape:connector-curvature="0"
       id="path110"
       d="m 392.506,118.831 h -28.085 c -5.522,0 -10,4.478 -10,10 0,5.522 4.478,10 10,10 h 3.925 l -36.861,36.861 c -3.905,3.905 -3.905,10.237 0,14.143 1.953,1.952 4.512,2.929 7.071,2.929 2.559,0 5.118,-0.977 7.071,-2.929 l 36.879,-36.879 v 3.961 c 0,5.522 4.477,10 10,10 5.522,0 10,-4.478 10,-10 v -28.086 c 0,-5.522 -4.478,-10 -10,-10 z" /></g><g
     id="g116" /><g
     id="g118" /><g
     id="g120" /><g
     id="g122" /><g
     id="g124" /><g
     id="g126" /><g
     id="g128" /><g
     id="g130" /><g
     id="g132" /><g
     id="g134" /><g
     id="g136" /><g
     id="g138" /><g
     id="g140" /><g
     id="g142" /><g
     id="g144" /><path
     style="fill:#0066ff;fill-opacity:1;stroke-width:1.08474576"
     d=""
     id="path4628"
     inkscape:connector-curvature="0" /><path
     style="fill:#00aa44;fill-opacity:1;stroke-width:1.08474576"
     d="m 240.45721,60.772864 c -6.10289,-1.237831 -9.89121,-3.335697 -14.65499,-8.115522 -6.26176,-6.282839 -7.93636,-10.630613 -7.93636,-20.605178 0,-6.402809 0.5508,-9.788073 2.10087,-12.912165 10.66909,-21.5030671 41.36258,-21.6405445 52.39298,-0.234671 5.79827,11.252264 2.89286,26.983525 -6.44052,34.872018 -7.13136,6.027366 -16.94372,8.723251 -25.46198,6.995518 z m 12.74633,-21.586411 c 2.3475,-2.3475 3.1708,-4.199913 3.1708,-7.134289 0,-7.901156 -9.55742,-13.149906 -15.88033,-8.721168 -3.04659,2.133916 -5.13516,7.500949 -4.26624,10.963024 2.02178,8.055405 11.17487,10.693335 16.97577,4.892433 z"
     id="path4630"
     inkscape:connector-curvature="0" /></svg>