<?xml version="1.0" encoding="UTF-8" standalone="no"?>
<!-- Generator: Adobe Illustrator 19.0.0, SVG Export Plug-In . SVG Version: 6.00 Build 0)  -->

<svg
   xmlns:dc="http://purl.org/dc/elements/1.1/"
   xmlns:cc="http://creativecommons.org/ns#"
   xmlns:rdf="http://www.w3.org/1999/02/22-rdf-syntax-ns#"
   xmlns:svg="http://www.w3.org/2000/svg"
   xmlns="http://www.w3.org/2000/svg"
   xmlns:sodipodi="http://sodipodi.sourceforge.net/DTD/sodipodi-0.dtd"
   xmlns:inkscape="http://www.inkscape.org/namespaces/inkscape"
   version="1.1"
   id="Capa_1"
   x="0px"
   y="0px"
   viewBox="0 0 512 512"
   style="enable-background:new 0 0 512 512;"
   xml:space="preserve"
   width="65px"
   height="65px"
   sodipodi:docname="strateg (copy)2.svg"
   inkscape:version="0.92.1 r15371"><metadata
     id="metadata151"><rdf:RDF><cc:Work
         rdf:about=""><dc:format>image/svg+xml</dc:format><dc:type
           rdf:resource="http://purl.org/dc/dcmitype/StillImage" /><dc:title></dc:title></cc:Work></rdf:RDF></metadata><defs
     id="defs149"><filter
       inkscape:collect="always"
       style="color-interpolation-filters:sRGB"
       id="filter914"
       x="-0.011920079"
       width="1.0238402"
       y="-0.012081005"
       height="1.024162"><feGaussianBlur
         inkscape:collect="always"
         stdDeviation="0.10136101"
         id="feGaussianBlur916" /></filter></defs><sodipodi:namedview
     pagecolor="#ffffff"
     bordercolor="#666666"
     borderopacity="1"
     objecttolerance="10"
     gridtolerance="10"
     guidetolerance="10"
     inkscape:pageopacity="0"
     inkscape:pageshadow="2"
     inkscape:window-width="1440"
     inkscape:window-height="836"
     id="namedview147"
     showgrid="false"
     inkscape:zoom="0.921875"
     inkscape:cx="290.07075"
     inkscape:cy="271.98006"
     inkscape:window-x="0"
     inkscape:window-y="27"
     inkscape:window-maximized="1"
     inkscape:current-layer="Capa_1" /><g
     id="g4"
     transform="matrix(0.99576271,0,0,0.99569076,2.2711867,-2.271186)"><path
       style="fill:#006df0"
       inkscape:connector-curvature="0"
       id="path2"
       d="M 482.882,190.828 C 465.657,130.754 424.231,79.018 369.225,48.886 c -4.844,-2.65 -10.921,-0.877 -13.575,3.966 -2.653,4.843 -0.878,10.921 3.966,13.575 50.356,27.585 88.277,74.937 104.042,129.913 1.258,4.389 5.259,7.247 9.607,7.247 0.912,0 1.841,-0.126 2.761,-0.391 5.31,-1.521 8.379,-7.06 6.856,-12.368 z" /></g><path
     d="m 329.293,31.606 -0.446,-0.146 c -5.261,-1.688 -10.891,1.206 -12.579,6.464 -1.688,5.258 1.205,10.889 6.463,12.579 l 0.36,0.116 c 1.03,0.336 2.075,0.496 3.103,0.496 4.211,0 8.129,-2.682 9.505,-6.902 1.713,-5.251 -1.156,-10.896 -6.406,-12.607 z"
     id="path8"
     inkscape:connector-curvature="0"
     style="fill:#162d50;filter:url(#filter914);fill-opacity:1"
     transform="matrix(0.99576271,0,0,0.99569076,2.2711867,-2.271186)" /><g
     id="g16"
     transform="matrix(0.99576271,0,0,0.99569076,2.2711867,-2.271186)"><path
       style="fill:#006df0"
       inkscape:connector-curvature="0"
       id="path14"
       d="m 45.765,172.301 c -5.22,-1.813 -10.916,0.945 -12.729,6.161 -1.938,5.575 -3.686,11.289 -5.192,16.983 -1.413,5.338 1.769,10.812 7.108,12.225 0.857,0.228 1.718,0.336 2.565,0.336 4.427,0 8.475,-2.963 9.66,-7.444 1.379,-5.207 2.977,-10.434 4.749,-15.532 1.813,-5.217 -0.944,-10.916 -6.161,-12.729 z" /></g><g
     id="g22"
     transform="matrix(0.99576271,0,0,0.99569076,2.2711867,-2.271186)"><path
       style="fill:#006df0"
       inkscape:connector-curvature="0"
       id="path20"
       d="m 80.052,113.796 c -4.439,-3.282 -10.702,-2.343 -13.984,2.102 -3.505,4.743 -6.87,9.675 -10.003,14.659 -2.94,4.675 -1.533,10.848 3.143,13.788 1.653,1.04 3.494,1.535 5.313,1.535 3.324,0 6.576,-1.656 8.476,-4.679 2.868,-4.563 5.949,-9.077 9.157,-13.421 3.282,-4.441 2.341,-10.703 -2.102,-13.984 z" /></g><g
     id="g28"
     transform="matrix(0.99576271,0,0,0.99569076,2.2711867,-2.271186)"><path
       style="fill:#006df0"
       inkscape:connector-curvature="0"
       id="path26"
       d="m 191.408,39.131 c -1.808,-5.218 -7.505,-7.982 -12.724,-6.173 -5.569,1.931 -11.133,4.098 -16.536,6.442 -5.067,2.198 -7.393,8.087 -5.194,13.153 1.635,3.772 5.314,6.025 9.178,6.025 1.328,0 2.679,-0.267 3.975,-0.829 4.943,-2.145 10.033,-4.127 15.128,-5.894 5.218,-1.809 7.982,-7.506 6.173,-12.724 z" /></g><g
     id="g34"
     transform="matrix(0.99576271,0,0,0.99569076,2.2711867,-2.271186)"><path
       style="fill:#006df0"
       inkscape:connector-curvature="0"
       id="path32"
       d="m 130.086,68.034 c -3.277,-4.446 -9.537,-5.395 -13.983,-2.116 -4.74,3.495 -9.409,7.214 -13.877,11.055 -4.188,3.6 -4.665,9.914 -1.064,14.102 1.977,2.299 4.774,3.48 7.587,3.48 2.308,0 4.627,-0.795 6.514,-2.417 4.091,-3.517 8.366,-6.922 12.707,-10.121 4.445,-3.277 5.393,-9.537 2.116,-13.983 z" /></g><path
     d="m 32.144068,222.75493 c -16.471907,0 -29.8728813,13.4 -29.8728813,29.87072 0,16.47072 13.4009743,29.87072 29.8728813,29.87072 16.471907,0 29.872881,-13.4 29.872881,-29.87072 0,-16.47072 -13.400974,-29.87072 -29.872881,-29.87072 z m 0,39.82763 c -5.490636,0 -9.957627,-4.46667 -9.957627,-9.95691 0,-5.49024 4.466991,-9.95691 9.957627,-9.95691 5.490636,0 9.957627,4.46667 9.957627,9.95691 0,5.49024 -4.466991,9.95691 -9.957627,9.95691 z"
     id="path38"
     inkscape:connector-curvature="0"
     style="fill:#00ccff;stroke-width:0.9957267" /><path
     d="m 482.22881,222.75493 c -16.4719,0 -29.87288,13.4 -29.87288,29.87072 0,16.47072 13.40098,29.87072 29.87288,29.87072 16.47191,0 29.87288,-13.4 29.87288,-29.87072 0,-16.47072 -13.40097,-29.87072 -29.87288,-29.87072 z m 0,39.82763 c -5.49063,0 -9.95762,-4.46667 -9.95762,-9.95691 0,-5.49024 4.46699,-9.95691 9.95762,-9.95691 5.49064,0 9.95763,4.46667 9.95763,9.95691 0,5.49024 -4.46699,9.95691 -9.95763,9.95691 z"
     id="path44"
     inkscape:connector-curvature="0"
     style="fill:#214478;stroke-width:0.9957267" /><g
     id="g54"
     transform="matrix(0.99576271,0,0,0.99569076,-7.4501583,-2.271186)"
     style="fill:#0066ff"><g
       id="g52"
       style="fill:#0066ff"><path
         d="m 256,0 c -16.542,0 -30,13.458 -30,30 0,16.542 13.458,30 30,30 16.542,0 30,-13.458 30,-30 C 286,13.458 272.542,0 256,0 Z m 0,40 c -5.514,0 -10,-4.486 -10,-10 0,-5.514 4.486,-10 10,-10 5.514,0 10,4.486 10,10 0,5.514 -4.486,10 -10,10 z"
         id="path50"
         inkscape:connector-curvature="0"
         style="fill:#0066ff" /></g></g><g
     id="g58"
     transform="matrix(0.99576271,0,0,0.99569076,2.2711867,-2.271186)"><path
       style="fill:#006df0"
       inkscape:connector-curvature="0"
       id="path56"
       d="m 153.612,446.241 c -50.991,-27.504 -89.36,-75.1 -105.271,-130.582 -1.521,-5.308 -7.057,-8.382 -12.369,-6.855 -5.309,1.522 -8.378,7.06 -6.855,12.369 17.384,60.625 59.301,112.627 115.001,142.672 1.51,0.813 3.136,1.2 4.738,1.2 3.558,0 7.003,-1.903 8.811,-5.255 2.621,-4.86 0.807,-10.927 -4.055,-13.549 z" /></g><g
     id="g64"
     transform="matrix(0.99576271,0,0,0.99569076,2.2711867,-2.271186)"><path
       style="fill:#006df0"
       inkscape:connector-curvature="0"
       id="path62"
       d="m 189.307,461.51 -0.285,-0.093 c -5.261,-1.69 -10.892,1.199 -12.583,6.456 -1.691,5.257 1.198,10.891 6.456,12.583 l 0.221,0.071 c 1.028,0.335 2.071,0.494 3.098,0.494 4.213,0 8.132,-2.685 9.507,-6.907 1.709,-5.251 -1.162,-10.894 -6.414,-12.604 z" /></g><g
     id="g70"
     transform="matrix(0.99576271,0,0,0.99569076,2.2711867,-2.271186)"><path
       style="fill:#006df0"
       inkscape:connector-curvature="0"
       id="path68"
       d="m 355.046,459.447 c -2.199,-5.066 -8.087,-7.396 -13.152,-5.196 -4.943,2.145 -10.033,4.127 -15.128,5.894 -5.218,1.809 -7.982,7.506 -6.173,12.724 1.433,4.134 5.306,6.728 9.448,6.728 1.086,0 2.191,-0.179 3.275,-0.555 5.569,-1.931 11.133,-4.098 16.536,-6.442 5.067,-2.198 7.393,-8.087 5.194,-13.153 z" /></g><g
     id="g76"
     transform="matrix(0.99576271,0,0,0.99569076,2.2711867,-2.271186)"><path
       style="fill:#006df0"
       inkscape:connector-curvature="0"
       id="path74"
       d="m 452.792,367.655 c -4.676,-2.941 -10.85,-1.532 -13.788,3.144 -2.868,4.563 -5.949,9.077 -9.157,13.421 -3.282,4.441 -2.341,10.703 2.102,13.984 1.787,1.321 3.869,1.958 5.934,1.958 3.064,0 6.09,-1.404 8.051,-4.06 3.505,-4.743 6.87,-9.675 10.003,-14.659 2.938,-4.675 1.531,-10.848 -3.145,-13.788 z" /></g><g
     id="g82"
     transform="matrix(0.99576271,0,0,0.99569076,2.2711867,-2.271186)"><path
       style="fill:#006df0"
       inkscape:connector-curvature="0"
       id="path80"
       d="m 410.839,420.925 c -3.6,-4.187 -9.914,-4.662 -14.102,-1.063 -4.091,3.517 -8.366,6.922 -12.707,10.121 -4.445,3.277 -5.393,9.537 -2.116,13.983 1.961,2.66 4.988,4.067 8.058,4.067 2.061,0 4.14,-0.635 5.926,-1.951 4.74,-3.495 9.409,-7.214 13.877,-11.055 4.188,-3.6 4.665,-9.914 1.064,-14.102 z" /></g><g
     id="g88"
     transform="matrix(0.99576271,0,0,0.99569076,2.2711867,-2.271186)"><path
       style="fill:#006df0"
       inkscape:connector-curvature="0"
       id="path86"
       d="m 477.048,304.33 c -5.337,-1.416 -10.813,1.769 -12.226,7.108 -1.379,5.207 -2.977,10.434 -4.749,15.532 -1.813,5.217 0.944,10.916 6.161,12.729 1.088,0.378 2.194,0.558 3.284,0.558 4.139,0 8.01,-2.59 9.445,-6.719 1.938,-5.575 3.686,-11.289 5.192,-16.983 1.414,-5.338 -1.768,-10.812 -7.107,-12.225 z" /></g><path
     d="m 245.25424,448.76271 c -15.70089,0 -28.47458,12.94477 -28.47458,28.85593 0,15.91116 12.77369,28.85594 28.47458,28.85594 15.70088,0 28.47457,-12.94478 28.47457,-28.85594 0,-15.91116 -12.77369,-28.85593 -28.47457,-28.85593 z m 0,38.47458 c -5.23363,0 -9.49153,-4.31493 -9.49153,-9.61865 0,-5.30372 4.2579,-9.61864 9.49153,-9.61864 5.23362,0 9.49152,4.31492 9.49152,9.61864 0,5.30372 -4.2579,9.61865 -9.49152,9.61865 z"
     id="path92"
     inkscape:connector-curvature="0"
     style="fill:#2c89a0;stroke-width:0.95548731" /><g
     id="g100"
     transform="matrix(0.99576271,0,0,0.99569076,2.2711867,-2.271186)"><path
       style="fill:#006df0"
       inkscape:connector-curvature="0"
       id="path98"
       d="m 304.576,246 h -4.115 c 9.366,-10.522 15.072,-24.371 15.072,-39.533 v -21.039 -9.734 -2.19 c 0,-32.827 -26.706,-59.533 -59.533,-59.533 -32.827,0 -59.533,26.706 -59.533,59.533 v 2.19 9.734 21.039 c 0,15.162 5.706,29.011 15.072,39.533 h -4.115 c -40.804,0 -74,33.196 -74,74 v 49.97 c 0,5.522 4.478,10 10,10 h 225.152 c 5.522,0 10,-4.478 10,-10 V 320 c 0,-40.804 -33.196,-74 -74,-74 z M 256,133.97 c 19.829,0 36.296,14.676 39.109,33.735 l -17.646,-10.367 c -4.21,-2.475 -9.593,-1.544 -12.73,2.199 -8.462,10.099 -20.871,15.891 -34.047,15.891 h -14.219 v -1.925 0 c 0,-21.799 17.734,-39.533 39.533,-39.533 z m -39.533,61.458 h 14.219 c 16.225,0 31.649,-6.057 43.447,-16.851 l 21.4,12.573 v 15.316 c 0,21.8 -17.734,39.534 -39.533,39.534 -21.799,0 -39.533,-17.734 -39.533,-39.533 z M 358.576,359.97 H 153.424 V 320 c 0,-29.775 24.225,-54 54,-54 H 246 v 42 c 0,5.522 4.478,10 10,10 5.522,0 10,-4.478 10,-10 v -42 h 38.576 c 29.775,0 54,24.225 54,54 z" /></g><g
     id="g106"
     transform="matrix(0.99576271,0,0,0.99569076,2.2711867,-2.271186)"><path
       style="fill:#006df0"
       inkscape:connector-curvature="0"
       id="path104"
       d="m 182.204,199.794 -13.266,-13.267 c -1.875,-1.876 -4.419,-2.93 -7.071,-2.93 -2.652,0 -5.195,1.054 -7.071,2.929 L 92.661,248.66 c -3.905,3.905 -3.905,10.237 0,14.143 1.954,1.954 4.513,2.93 7.072,2.93 2.559,0 5.118,-0.977 7.071,-2.929 l 55.063,-55.063 6.194,6.195 c 3.906,3.904 10.236,3.906 14.143,0 3.905,-3.905 3.905,-10.236 0,-14.142 z" /></g><g
     id="g112"
     transform="matrix(0.99576271,0,0,0.99569076,2.2711867,-2.271186)"><path
       style="fill:#006df0"
       inkscape:connector-curvature="0"
       id="path110"
       d="m 392.506,118.831 h -28.085 c -5.522,0 -10,4.478 -10,10 0,5.522 4.478,10 10,10 h 3.925 l -36.861,36.861 c -3.905,3.905 -3.905,10.237 0,14.143 1.953,1.952 4.512,2.929 7.071,2.929 2.559,0 5.118,-0.977 7.071,-2.929 l 36.879,-36.879 v 3.961 c 0,5.522 4.477,10 10,10 5.522,0 10,-4.478 10,-10 v -28.086 c 0,-5.522 -4.478,-10 -10,-10 z" /></g><g
     id="g116" /><g
     id="g118" /><g
     id="g120" /><g
     id="g122" /><g
     id="g124" /><g
     id="g126" /><g
     id="g128" /><g
     id="g130" /><g
     id="g132" /><g
     id="g134" /><g
     id="g136" /><g
     id="g138" /><g
     id="g140" /><g
     id="g142" /><g
     id="g144" /><path
     style="fill:#0066ff;fill-opacity:1;stroke-width:1.08474576"
     d=""
     id="path4628"
     inkscape:connector-curvature="0" /><path
     style="fill:#55d400;fill-opacity:1;stroke-width:1.08474576"
     d="m 241.64365,56.332186 c -6.10289,-1.237831 -9.89121,-3.335697 -14.65499,-8.115522 -6.26176,-6.282839 -7.93636,-10.630613 -7.93636,-20.605178 0,-6.402809 0.5508,-9.788073 2.10087,-12.912165 10.66909,-21.503067 41.36258,-21.640544 52.39298,-0.234671 5.79827,11.252264 2.89286,26.983525 -6.44052,34.872018 -7.13136,6.027366 -16.94372,8.723251 -25.46198,6.995518 z m 12.74633,-21.586411 c 2.3475,-2.3475 3.1708,-4.199913 3.1708,-7.134289 0,-7.901156 -9.55742,-13.149906 -15.88033,-8.721168 -3.04659,2.133916 -5.13516,7.500949 -4.26624,10.963024 2.02178,8.055405 11.17487,10.693335 16.97577,4.892433 z"
     id="path4630"
     inkscape:connector-curvature="0" /><path
     style="fill:#162d50;fill-opacity:1;stroke-width:1.08474576"
     d="m 467.56013,197.70432 c -1.06759,-1.06759 -3.80202,-7.29131 -6.07649,-13.83051 -17.53266,-50.40683 -52.55416,-92.724098 -98.61563,-119.159508 -7.87925,-4.522021 -9.43817,-10.588179 -4.09433,-15.93202 5.38331,-5.383304 8.37949,-4.447904 28.32498,8.842966 34.63219,23.077501 62.58759,55.128202 80.82397,92.664202 7.82606,16.1084 14.59551,34.795 14.59551,40.28988 0,7.48815 -9.88588,12.19712 -14.95801,7.12499 z"
     id="path919"
     inkscape:connector-curvature="0" /><path
     style="fill:#0088aa;fill-opacity:1;stroke-width:0.54237288"
     d="m 183.96161,475.61158 c -3.96727,-1.72043 -6.02096,-4.75056 -6.05334,-8.93146 -0.0566,-7.3128 7.33813,-11.82849 14.04961,-8.57952 7.12827,3.45074 7.12827,13.77379 0,17.22452 -2.77502,1.34337 -5.34663,1.4355 -7.99627,0.28646 z"
     id="path921"
     inkscape:connector-curvature="0" /><path
     style="fill:#0088aa;fill-opacity:1;stroke-width:0.54237288"
     d="M 147.55373,459.99757 C 142.17747,458.0764 121.66952,444.77704 111.55096,436.64986 74.863177,407.18235 48.434778,369.29217 33.971456,325.42473 31.076163,316.64327 30.77287,315.0262 31.508641,312.29376 c 1.158521,-4.30242 4.976847,-7.1809 9.533846,-7.18718 2.478805,-0.003 5.908074,1.7446 7.40734,3.77577 0.550468,0.74577 2.56848,6.00188 4.484472,11.68026 1.915992,5.67838 4.752775,13.24449 6.303963,16.81356 18.87136,43.42052 51.237088,79.56314 91.905918,102.63082 7.08666,4.01961 8.94915,6.316 8.94915,11.03398 0,4.29946 -2.86981,7.86568 -7.32203,9.09884 -2.65098,0.73426 -2.77411,0.73091 -5.21757,-0.14224 z"
     id="path923"
     inkscape:connector-curvature="0" /><path
     style="fill:#2ad4ff;fill-opacity:1;stroke-width:0.54237288"
     d="m 34.951048,203.32466 c -5.30591,-2.80282 -5.947647,-7.19655 -2.660195,-18.21333 2.969064,-9.94982 4.572881,-13.15479 7.362305,-14.71237 4.21478,-2.35348 9.776927,-1.28884 12.599406,2.41162 2.450925,3.21333 2.329939,6.34104 -0.619328,16.01077 -1.389064,4.5543 -3.046675,9.33176 -3.683579,10.61656 -2.248185,4.53517 -8.32904,6.35343 -12.998609,3.88675 z"
     id="path925"
     inkscape:connector-curvature="0" /><path
     style="fill:#2ad4ff;fill-opacity:1;stroke-width:0.38351554"
     d="m 63.323487,142.17264 c -4.897489,-1.69148 -7.72509,-7.2723 -6.100434,-12.0404 1.045666,-3.06887 10.369883,-16.65412 12.880418,-18.7666 1.230036,-1.03501 4.422678,-2.213 5.997751,-2.213 3.084282,0 7.204439,2.57665 8.649496,5.4092 2.000918,3.92212 1.366788,7.23061 -2.394005,12.49038 -1.482196,2.07298 -3.951099,5.67556 -5.486451,8.00575 -3.260793,4.94887 -4.81322,6.44112 -7.544766,7.2523 -2.535394,0.75293 -3.486641,0.73112 -6.002009,-0.13763 z"
     id="path927"
     inkscape:connector-curvature="0" /><path
     style="fill:#2ad4ff;fill-opacity:1;stroke-width:0.38351554"
     d="m 108.797,91.463503 c -6.23414,-0.93207 -9.805409,-8.062017 -6.90436,-13.784362 1.15644,-2.281086 3.65502,-4.594943 11.64063,-10.780047 5.4651,-4.232887 6.69413,-4.917676 9.30623,-5.185234 7.63615,-0.782172 13.08754,7.300877 9.52417,14.121949 -0.86627,1.658232 -1.88525,2.683145 -5.28635,5.317133 -2.31727,1.794619 -5.73359,4.518073 -7.59182,6.052121 -1.85824,1.534048 -3.88258,3.049795 -4.49855,3.368326 -1.63347,0.844696 -4.11091,1.200953 -6.18995,0.890114 z"
     id="path929"
     inkscape:connector-curvature="0" /><path
     style="fill:#37abc8;fill-opacity:1;stroke-width:0.76703107"
     d="m 162.2476,53.786529 c -6.22026,-4.892861 -5.37959,-12.780789 1.7447,-16.37019 1.94502,-0.979954 6.91953,-3.04466 11.05447,-4.588235 8.67917,-3.239945 11.51727,-3.157764 15.11264,0.437608 3.90646,3.906461 3.79542,9.769186 -0.25672,13.554053 -2.34965,2.194667 -19.25767,8.568552 -22.72983,8.568552 -1.76819,0 -3.67889,-0.621395 -4.92526,-1.601788 z"
     id="path931"
     inkscape:connector-curvature="0" /><path
     style="fill:#37abc8;fill-opacity:1;stroke-width:0.54237288"
     d="m 466.33095,335.49533 c -3.81023,-1.65233 -6.04696,-4.79577 -6.10415,-8.5786 -0.0187,-1.2386 0.59476,-4.19698 1.36329,-6.57419 0.76854,-2.37721 2.14773,-6.79771 3.06487,-9.82332 1.37687,-4.54225 1.99725,-5.79062 3.55913,-7.16198 4.77349,-4.19118 11.15722,-3.28735 14.83033,2.09973 1.90726,2.79723 1.42896,7.41544 -1.7962,17.34303 -2.82499,8.69581 -4.22172,11.01656 -7.53615,12.5217 -2.6906,1.22185 -4.84698,1.27258 -7.38112,0.17363 z"
     id="path933"
     inkscape:connector-curvature="0" /><path
     style="fill:#2c89a0;fill-opacity:1;stroke-width:0.54237288"
     d="m 327.7508,474.4046 c -2.76981,-0.9954 -5.46254,-3.91387 -6.22555,-6.74746 -1.14734,-4.26089 1.25054,-9.32604 5.2227,-11.03215 1.14818,-0.49317 5.59056,-2.26525 9.87196,-3.93796 7.54845,-2.94913 10.4277,-3.53861 13.14989,-2.69223 7.64563,2.37718 8.73563,13.52865 1.7084,17.47818 -3.19481,1.79558 -16.89805,7.01739 -19.38842,7.38823 -1.32016,0.19658 -3.01881,0.0178 -4.33898,-0.45661 z"
     id="path935"
     inkscape:connector-curvature="0" /><path
     style="fill:#2c89a0;fill-opacity:1;stroke-width:0.54237288"
     d="m 387.49599,442.98255 c -4.02512,-1.4825 -6.42803,-4.80321 -6.48185,-8.95761 -0.0503,-3.87829 1.35489,-6.07973 6.30892,-9.88421 2.43526,-1.87017 6.0907,-4.7881 8.12321,-6.4843 2.29816,-1.91788 4.55403,-3.30014 5.9661,-3.65564 5.2162,-1.31322 10.35954,1.75975 11.78102,7.03875 0.68737,2.55268 0.29944,4.9082 -1.22037,7.41026 -1.0577,1.7413 -13.9176,12.4459 -16.77545,13.96393 -2.23172,1.18544 -5.3934,1.41895 -7.70158,0.56882 z"
     id="path937"
     inkscape:connector-curvature="0" /><path
     style="fill:#2c89a0;fill-opacity:1;stroke-width:0.54237288"
     d="m 434.57582,395.00086 c -4.32689,-1.96543 -6.80865,-6.69331 -5.6914,-10.84243 0.31089,-1.15457 1.55772,-3.53423 2.77075,-5.28814 1.21302,-1.75391 3.86719,-5.62961 5.89817,-8.61266 4.30756,-6.32686 5.98968,-7.55863 10.33546,-7.56842 4.92281,-0.0111 8.59164,3.05379 9.49599,7.9328 0.60419,3.25968 -0.15271,5.101 -5.20469,12.66145 -6.07638,9.0935 -7.26422,10.49007 -9.96618,11.7174 -2.77298,1.25959 -4.86512,1.25959 -7.6381,0 z"
     id="path939"
     inkscape:connector-curvature="0" /><path
     style="fill:#2c89a0;fill-opacity:1;stroke-width:0.54237288"
     d="m 467.41182,335.68136 c 0,-0.22373 -0.35126,-0.40678 -0.78057,-0.40678 -0.97395,0 -5.78171,-4.10439 -5.33317,-4.55293 0.18063,-0.18064 0.0665,-0.32843 -0.25356,-0.32843 -0.32904,0 -0.44906,-0.50834 -0.27615,-1.16956 0.21475,-0.82119 0.11237,-1.04998 -0.3437,-0.76811 -0.47924,0.29618 -0.54059,-0.002 -0.234,-1.13553 0.22856,-0.84533 0.42139,-2.20816 0.42852,-3.02849 0.007,-0.82034 0.22213,-1.49153 0.47778,-1.49153 0.25564,0 0.33347,-0.34224 0.17296,-0.76053 -0.16052,-0.4183 -0.12561,-0.92677 0.0776,-1.12995 0.20318,-0.20317 0.39992,-0.59314 0.43721,-0.86658 0.0373,-0.27345 0.12881,-0.61921 0.20339,-0.76836 0.0746,-0.14916 0.18655,-0.45424 0.24884,-0.67797 0.0623,-0.22373 0.39962,-1.09845 0.74964,-1.94382 0.35002,-0.84537 0.49821,-1.76062 0.32932,-2.0339 -0.16889,-0.27327 -0.0225,-0.49686 0.32534,-0.49686 0.34782,0 0.49492,-0.35828 0.32688,-0.79619 -0.16804,-0.4379 -0.0555,-0.95072 0.25013,-1.1396 0.30562,-0.18888 0.42465,-0.68483 0.26453,-1.10212 -0.16013,-0.41728 -0.0286,-0.7587 0.29223,-0.7587 0.32086,0 0.4429,-0.3661 0.27119,-0.81356 -0.1717,-0.44745 -0.10224,-0.81355 0.15436,-0.81355 0.25661,0 0.6302,-0.65201 0.83021,-1.44891 0.43382,-1.7285 4.65204,-6.04834 5.59811,-5.73298 0.36537,0.12179 0.6643,0.018 0.6643,-0.23054 0,-0.24859 1.09831,-0.45198 2.44068,-0.45198 1.34238,0 2.44068,0.20916 2.44068,0.46481 0,0.25564 0.31908,0.34236 0.70906,0.19271 0.38997,-0.14965 1.9154,0.98356 3.38983,2.51825 2.67257,2.78179 2.68077,2.80154 2.68077,6.45232 0,2.01409 -0.21151,3.66155 -0.47004,3.66101 -0.25852,-5.3e-4 -0.34544,0.47547 -0.19317,1.05777 0.15228,0.58231 0.0535,1.13319 -0.21942,1.22418 -0.27296,0.091 -0.55214,0.95644 -0.62039,1.92323 -0.0682,0.96679 -0.33326,1.75829 -0.5889,1.75888 -0.25565,5.9e-4 -0.32433,0.36718 -0.15262,0.81463 0.17171,0.44746 0.0497,0.81356 -0.27119,0.81356 -0.32085,0 -0.44289,0.36611 -0.27118,0.81356 0.1717,0.44746 0.11441,0.81356 -0.12731,0.81356 -0.24173,0 -0.74939,1.03729 -1.12815,2.30509 -1.48921,4.98475 -5.30654,10.30742 -6.98988,9.74631 -0.34582,-0.11527 -0.62877,-0.006 -0.62877,0.24239 0,0.24859 -1.0983,0.45198 -2.44067,0.45198 -1.34238,0 -2.44068,-0.18306 -2.44068,-0.40678 z"
     id="path941"
     inkscape:connector-curvature="0" /><path
     style="fill:#00ccff;fill-opacity:1;stroke-width:0.76703107"
     d="m 185.06121,475.95194 c -5.81921,-1.24542 -8.57579,-7.47714 -6.07412,-13.73155 2.58834,-6.47109 12.98079,-6.85593 16.78185,-0.62143 4.65177,7.62982 -1.78806,16.26197 -10.70773,14.35298 z"
     id="path943"
     inkscape:connector-curvature="0" /><path
     style="fill:#00ccff;fill-opacity:1;stroke-width:0.76703107"
     d="M 144.01401,458.30835 C 136.89104,454.50333 125.715,447.32116 117.9253,441.54269 78.886184,412.58312 50.035039,372.92494 34.594585,326.99802 l -3.992171,-11.87454 1.327479,-3.47595 c 2.179745,-5.70758 7.718621,-8.0378 13.069806,-5.49849 3.338727,1.58433 4.235187,3.16187 7.385568,12.99671 15.532731,48.49 50.805593,92.49662 95.080383,118.62278 9.88126,5.83085 11.31331,7.08318 12.30312,10.75905 1.43325,5.32267 -2.62191,11.19628 -8.20082,11.87834 -2.30204,0.28143 -3.96475,-0.18026 -7.55394,-2.09757 z"
     id="path945"
     inkscape:connector-curvature="0" /><path
     style="fill:#37c837;fill-opacity:1;stroke-width:0.76703107"
     d="m 37.013171,204.26247 c 0,-0.38262 -0.431455,-0.56197 -0.958789,-0.39854 -0.798379,0.24742 -6.472977,-4.71455 -6.073148,-5.31048 0.07076,-0.10546 0.09989,-0.36434 0.06474,-0.57527 -0.302938,-1.81763 -0.08336,-5.66092 0.364864,-6.38616 0.306142,-0.49535 0.343299,-1.2458 0.08257,-1.66767 -0.260729,-0.42186 -0.07159,-0.76703 0.420311,-0.76703 0.4919,0 0.699927,-0.50669 0.462283,-1.12598 -0.237644,-0.61929 -0.07846,-1.34453 0.353743,-1.61165 0.432203,-0.26711 0.600543,-0.9685 0.374089,-1.55862 -0.226453,-0.59013 -0.04047,-1.07296 0.413288,-1.07296 0.453762,0 0.626344,-0.51775 0.383516,-1.15055 -0.242829,-0.6328 -0.07025,-1.15055 0.383515,-1.15055 0.453762,0 0.630586,-0.50669 0.392942,-1.12598 -0.237644,-0.61929 -0.09636,-1.33347 0.313964,-1.58706 0.410324,-0.2536 0.562201,-0.75855 0.337504,-1.12211 -0.224696,-0.36357 -0.05211,-0.88132 0.383516,-1.15055 0.43563,-0.26923 0.593471,-0.81083 0.350759,-1.20355 -0.242712,-0.39271 -0.01823,-0.71403 0.498843,-0.71403 0.517075,0 0.749927,-0.19021 0.517448,-0.42269 -0.68214,-0.68214 3.526103,-4.65345 4.577441,-4.31972 0.527333,0.1674 0.959883,0.009 0.961221,-0.35298 0.0013,-0.36154 1.381993,-0.67416 3.068124,-0.69471 1.686131,-0.0206 3.065692,0.25869 3.065692,0.62054 0,0.36185 0.345164,0.44459 0.767031,0.18386 0.421867,-0.26073 0.767031,-0.051 0.767031,0.46609 0,0.51707 0.213673,0.72646 0.474829,0.4653 0.625246,-0.62524 2.871529,1.64877 3.088421,3.12656 0.09345,0.63673 0.451736,1.36483 0.796184,1.618 1.094924,0.80475 0.695641,6.54021 -0.524278,7.53094 -0.919605,0.74684 -0.939244,0.93929 -0.09784,0.95879 0.848604,0.0197 0.867574,0.24747 0.09784,1.17494 -0.525178,0.6328 -0.69776,1.15055 -0.383516,1.15055 0.314244,0 0.141662,0.51774 -0.383515,1.15054 -0.525178,0.63281 -0.69776,1.15055 -0.383516,1.15055 0.314244,0 0.154211,0.50263 -0.35563,1.11695 -0.509841,0.61432 -0.704316,1.47723 -0.432167,1.91758 0.27215,0.44034 0.09235,0.80063 -0.399546,0.80063 -0.491899,0 -0.699926,0.50669 -0.462282,1.12598 0.237644,0.61929 0.07846,1.34453 -0.353744,1.61165 -0.432202,0.26711 -0.600542,0.96849 -0.374088,1.55862 0.226453,0.59013 0.0774,1.07296 -0.331225,1.07296 -0.408627,0 -0.742958,0.50206 -0.742958,1.11569 0,1.4454 -3.57516,5.02056 -5.020567,5.02056 -0.613625,0 -1.115681,0.27613 -1.115681,0.61363 0,0.33749 -1.208074,0.61362 -2.684609,0.61362 -1.476535,0 -2.684609,-0.31306 -2.68461,-0.69569 z"
     id="path947"
     inkscape:connector-curvature="0" /><path
     style="fill:#37c837;fill-opacity:1;stroke-width:0.76703107"
     d="m 62.886547,142.1349 c -0.113124,-0.33937 -0.768632,-0.69967 -1.456683,-0.80065 -0.688051,-0.10099 -1.819906,-0.65576 -2.515235,-1.23283 -1.00145,-0.83113 -1.057393,-1.18043 -0.269137,-1.68045 0.740234,-0.46957 0.651307,-0.63425 -0.347208,-0.64298 -0.738268,-0.006 -1.30143,-0.27062 -1.251472,-0.58702 0.04996,-0.3164 0.02339,-0.74786 -0.05904,-0.95879 -0.615608,-1.57536 -0.274032,-5.94162 0.529885,-6.77336 0.542564,-0.56135 0.790354,-1.33797 0.550646,-1.72582 -0.239709,-0.38786 -0.04993,-0.7052 0.421733,-0.7052 0.471662,0 0.642737,-0.3476 0.380168,-0.77244 -0.26257,-0.42485 0.06024,-0.97876 0.717357,-1.23092 0.657117,-0.25216 1.002281,-0.76991 0.767032,-1.15055 -0.23525,-0.38064 0.109914,-0.89839 0.767031,-1.15055 0.657116,-0.25216 1.02614,-0.7313 0.820052,-1.06475 -0.206087,-0.33346 0.162936,-0.8126 0.820053,-1.06476 0.657116,-0.25216 0.965569,-0.8293 0.68545,-1.28255 -0.28411,-0.4597 0.222306,-1.01539 1.145312,-1.25676 0.936244,-0.24484 1.490303,-0.8609 1.276154,-1.41896 -0.208155,-0.54245 0.166889,-1.19554 0.833433,-1.45131 0.666545,-0.25578 0.986757,-0.69019 0.711584,-0.96537 -0.674827,-0.67482 2.630472,-4.12624 3.460367,-3.61334 0.360545,0.22283 0.655536,0.0396 0.655536,-0.40715 0,-0.44677 0.258873,-0.77143 0.575273,-0.72147 0.3164,0.05 0.747855,0.0121 0.958789,-0.0841 1.220852,-0.55682 5.455528,-0.48763 5.81563,0.095 0.234641,0.37966 0.747933,0.4917 1.14065,0.24899 0.392717,-0.24271 0.714031,-0.0554 0.714031,0.41627 0,0.47166 0.306054,0.66842 0.680121,0.43723 0.810416,-0.50086 2.632384,1.52877 2.878661,3.20676 0.09591,0.65348 0.456204,1.39528 0.800651,1.64844 0.95106,0.69902 0.677888,6.68209 -0.362313,7.93546 -0.503627,0.60683 -0.688572,1.33045 -0.410987,1.60803 0.277585,0.27759 -0.107503,0.5047 -0.85575,0.5047 -0.85885,0 -1.206646,0.4008 -0.943301,1.08707 0.22943,0.59789 -0.100682,1.28578 -0.733583,1.52865 -0.632902,0.24286 -0.946604,0.77186 -0.697117,1.17554 0.249489,0.40368 -0.256048,1.11376 -1.123413,1.57796 -0.867366,0.4642 -1.374409,1.17185 -1.126762,1.57255 0.247647,0.4007 0.06436,0.72854 -0.407301,0.72854 -0.471661,0 -0.642736,0.34761 -0.380167,0.77245 0.26257,0.42485 -0.06024,0.97876 -0.717357,1.23092 -0.657117,0.25216 -1.016899,0.74626 -0.799515,1.09799 0.217383,0.35173 -0.216054,0.9954 -0.963195,1.43036 -0.74714,0.43497 -1.046068,0.80135 -0.664283,0.81418 0.381785,0.0128 0.07678,0.70551 -0.677784,1.5393 -0.754566,0.83378 -1.670973,1.33116 -2.036459,1.10527 -0.365485,-0.22588 -0.664519,-0.0248 -0.664519,0.44688 0,0.47166 -0.345164,0.64424 -0.767031,0.38351 -0.421867,-0.26073 -0.767031,-0.19481 -0.767031,0.14649 0,0.80841 -6.839536,0.81178 -7.108961,0.004 z"
     id="path949"
     inkscape:connector-curvature="0" /><path
     style="fill:#37c837;fill-opacity:1;stroke-width:0.76703107"
     d="m 108.91626,91.679537 c -0.74161,-0.431871 -1.65464,-0.595939 -2.02896,-0.364597 -0.37432,0.231343 -0.8869,-0.117016 -1.13906,-0.774134 -0.25216,-0.657116 -0.78222,-0.994667 -1.17792,-0.750113 -0.62494,0.386235 -1.83861,-0.749346 -2.01085,-1.881474 -0.0321,-0.210933 -0.64385,-1.725867 -1.35947,-3.36652 -0.95786,-2.196033 -1.07991,-3.249542 -0.46263,-3.993313 0.46116,-0.55567 0.61581,-1.370593 0.34366,-1.81094 -0.27215,-0.440347 -0.0717,-0.800631 0.44532,-0.800631 0.51708,0 0.75605,-0.184087 0.53106,-0.409083 -0.42438,-0.424379 4.6996,-5.966761 5.71438,-6.180992 0.3164,-0.0668 0.86503,-0.164592 1.21918,-0.217326 0.35415,-0.05273 1.04595,-0.978252 1.53733,-2.056707 0.49138,-1.078457 1.21979,-1.759117 1.6187,-1.51258 0.3989,0.246538 1.09303,-0.238891 1.5425,-1.078732 0.44946,-0.83984 1.28433,-1.347732 1.85525,-1.128648 0.61814,0.237202 1.21308,-0.270983 1.47074,-1.256285 0.23944,-0.915628 0.79832,-1.428646 1.25135,-1.14866 0.45026,0.278277 0.81866,0.120053 0.81866,-0.351608 0,-0.471662 0.32131,-0.658984 0.71403,-0.416272 0.39271,0.242712 0.91511,0.11593 1.16089,-0.281738 0.26813,-0.433849 1.36899,-0.45857 2.75241,-0.06181 1.41276,0.405177 2.13378,0.383295 1.86196,-0.05651 -0.24397,-0.394753 -0.10681,-0.717733 0.3048,-0.717733 0.41161,0 0.86343,0.319277 1.00406,0.709504 0.14062,0.390227 0.73387,0.821682 1.31833,0.958789 1.46118,0.342772 4.47057,3.1868 4.11901,3.892683 -0.15757,0.3164 0.0994,0.575273 0.57107,0.575273 0.47166,0 0.6349,0.360284 0.36275,0.800631 -0.27215,0.440347 -0.0791,1.301529 0.42898,1.913738 0.73059,0.880307 0.66049,1.514961 -0.33517,3.034525 -0.93095,1.420804 -1.00455,1.935463 -0.28249,1.975328 0.53706,0.02965 0.28615,0.350555 -0.55759,0.71312 -0.87519,0.376082 -1.07416,0.682364 -0.46327,0.71312 0.66267,0.03337 0.22414,0.850652 -1.15054,2.144292 -1.22174,1.149709 -2.46991,2.016054 -2.77372,1.925211 -0.3038,-0.09084 -0.92516,0.531391 -1.38079,1.382743 -0.45562,0.851351 -1.1185,1.368625 -1.47306,1.149498 -0.35455,-0.219127 -1.21531,0.472533 -1.91279,1.537022 -0.69748,1.064488 -1.57175,1.747793 -1.94282,1.518456 -0.37108,-0.229336 -1.43762,0.654465 -2.37009,1.964003 -1.28854,1.809579 -1.85202,2.133876 -2.348,1.351324 -0.35893,-0.566311 -0.65788,-0.66213 -0.66434,-0.212931 -0.006,0.449199 -1.23153,1.3984 -2.72238,2.109336 -3.14476,1.49963 -2.68869,1.45177 -4.39048,0.460741 z"
     id="path951"
     inkscape:connector-curvature="0" /><path
     style="fill:#37c837;fill-opacity:1;stroke-width:0.76703107"
     d="m 162.30667,53.064916 c -1.30877,-1.296187 -2.88758,-3.426762 -3.50847,-4.734612 -1.02091,-2.150457 -0.9949,-2.639074 0.27188,-5.108288 0.77042,-1.501709 2.35769,-3.448079 3.52727,-4.325267 1.16957,-0.877186 2.47913,-1.883788 2.91013,-2.23689 0.43101,-0.353103 1.16756,-0.514032 1.63679,-0.357621 0.46924,0.156411 1.36987,-0.232335 2.00142,-0.86388 0.63154,-0.631545 1.36194,-0.934591 1.62309,-0.673435 0.26116,0.261156 0.47483,0.08297 0.47483,-0.395968 0,-0.478938 0.51775,-0.672119 1.15055,-0.42929 0.6328,0.242828 1.15054,0.07025 1.15054,-0.383516 0,-0.453762 0.47325,-0.643422 1.05165,-0.421467 0.57841,0.221955 1.57281,-0.117605 2.20978,-0.754579 0.63697,-0.636973 1.29494,-1.021329 1.46214,-0.854123 0.16721,0.167205 2.19299,0.05334 4.50175,-0.253033 4.10047,-0.544136 4.26104,-0.49316 6.93028,2.200256 1.5029,1.516513 2.59592,3.167179 2.42893,3.668147 -0.16699,0.500967 0.0703,0.910849 0.52733,0.910849 0.45702,0 0.83095,0.86291 0.83095,1.917578 0,1.054667 -0.37393,1.917577 -0.83095,1.917577 -0.45702,0 -0.68998,0.422895 -0.51769,0.939767 0.35597,1.067931 -5.16306,5.963513 -6.72297,5.963513 -0.56275,0 -1.47929,0.431455 -2.03676,0.958789 -0.55747,0.527334 -1.70391,1.076698 -2.54764,1.220809 -0.84373,0.144111 -1.64265,0.556177 -1.77538,0.915699 -0.13272,0.359524 -0.69225,0.480637 -1.2434,0.269142 -0.55115,-0.211497 -1.47805,0.06677 -2.05978,0.618362 -0.58173,0.551595 -1.57544,1.04714 -2.20824,1.101208 -0.6328,0.05407 -2.88483,0.424258 -5.0045,0.822643 -3.70411,0.696172 -3.94649,0.632701 -6.23353,-1.63237 z"
     id="path953"
     inkscape:connector-curvature="0" /></svg>
