<?xml version="1.0" encoding="UTF-8" standalone="no"?>
<!-- Generator: Adobe Illustrator 19.0.0, SVG Export Plug-In . SVG Version: 6.00 Build 0)  -->

<svg
   xmlns:dc="http://purl.org/dc/elements/1.1/"
   xmlns:cc="http://creativecommons.org/ns#"
   xmlns:rdf="http://www.w3.org/1999/02/22-rdf-syntax-ns#"
   xmlns:svg="http://www.w3.org/2000/svg"
   xmlns="http://www.w3.org/2000/svg"
   xmlns:sodipodi="http://sodipodi.sourceforge.net/DTD/sodipodi-0.dtd"
   xmlns:inkscape="http://www.inkscape.org/namespaces/inkscape"
   version="1.1"
   id="Capa_1"
   x="0px"
   y="0px"
   viewBox="0 0 480 480"
   style="enable-background:new 0 0 480 480;"
   xml:space="preserve"
   sodipodi:docname="work-team (copy).svg"
   inkscape:version="0.92.1 r15371"><metadata
     id="metadata79"><rdf:RDF><cc:Work
         rdf:about=""><dc:format>image/svg+xml</dc:format><dc:type
           rdf:resource="http://purl.org/dc/dcmitype/StillImage" /></cc:Work></rdf:RDF></metadata><defs
     id="defs77" /><sodipodi:namedview
     pagecolor="#ffffff"
     bordercolor="#666666"
     borderopacity="1"
     objecttolerance="10"
     gridtolerance="10"
     guidetolerance="10"
     inkscape:pageopacity="0"
     inkscape:pageshadow="2"
     inkscape:window-width="54"
     inkscape:window-height="54"
     id="namedview75"
     showgrid="false"
     inkscape:zoom="0.49166667"
     inkscape:cx="244.0678"
     inkscape:cy="231.86441"
     inkscape:window-x="0"
     inkscape:window-y="27"
     inkscape:window-maximized="1"
     inkscape:current-layer="Capa_1" /><g
     id="g6"
     style="fill:#0088aa"><g
       id="g4"
       style="fill:#0088aa"><path
         d="M429.688,90.304l-40-40c-2.678-2.681-6.869-3.115-10.04-1.04L335.2,78.4l-47.928-20L279.92,6.864    C279.355,2.924,275.98-0.001,272,0h-64c-3.98-0.001-7.355,2.924-7.92,6.864L192.72,58.4l-47.88,20l-44.456-29.12    c-3.171-2.075-7.362-1.641-10.04,1.04l-40,40c-2.684,2.685-3.112,6.886-1.024,10.056l29.6,44.96L73.96,156.8l14.688,6.352    l6.68-15.424c1.073-2.478,0.823-5.33-0.664-7.584l-28.416-43.12L97.04,66.232l42.576,27.888c2.229,1.443,5.025,1.701,7.48,0.688    l56-23.448c2.586-1.096,4.408-3.467,4.8-6.248L214.936,16h50.128l7.016,49.136c0.392,2.781,2.214,5.152,4.8,6.248l56,23.432    c2.452,1.013,5.246,0.755,7.472-0.688l42.592-27.872l31.008,31.008l-20.8,35.2c-1.238,2.087-1.462,4.624-0.608,6.896l8.872,23.432    l14.968-5.664l-7.512-19.832l22.04-37.264C432.772,96.89,432.268,92.887,429.688,90.304z"
         id="path2"
         style="fill:#0088aa" /></g></g><g
     id="g12"
     style="fill:#0088aa"><g
       id="g10"
       style="fill:#0088aa"><path
         d="M325.656,306.344l-24-24c-1.5-1.5-3.534-2.344-5.656-2.344H184c-2.122,0-4.156,0.844-5.656,2.344l-24,24    c-1.5,1.5-2.344,3.534-2.344,5.656v160c0,4.418,3.582,8,8,8h160c4.418,0,8-3.582,8-8V312    C328,309.878,327.156,307.844,325.656,306.344z M267.312,296h25.376L264,324.688L251.312,312L267.312,296z M252.688,336    l-10.344,10.344c-1.505,1.497-2.349,3.533-2.344,5.656c-0.015-2.102-0.857-4.114-2.344-5.6L227.312,336L240,323.312L252.688,336z     M244.688,296L240,300.688L235.312,296H244.688z M212.688,296l16,16L216,324.688L187.312,296H212.688z M209,464h-41V315.312l8-8    l34.344,34.344l13.2,13.2L209,464z M225.144,464l14.784-110.944c0.048-0.337,0.072-0.676,0.072-1.016    c0.002,0.513,0.055,1.025,0.16,1.528L262.24,464H225.144z M312,464h-33.44l-21.872-109.368l12.968-12.976L304,307.312l8,8V464z"
         id="path8"
         style="fill:#0088aa" /></g></g><g
     id="g18"
     style="fill:#0088aa"><g
       id="g16"
       style="fill:#0088aa"><path
         d="M296,104h-72c-26.499,0.026-47.974,21.501-48,48v48c0.04,35.33,28.67,63.96,64,64c35.33-0.04,63.96-28.67,64-64v-88    C304,107.582,300.418,104,296,104z M288,200c0,26.51-21.49,48-48,48c-26.51,0-48-21.49-48-48v-32h64    c11.824-0.003,23.227-4.393,32-12.32V200z M256,152h-64c0-17.673,14.327-32,32-32h64C288,137.673,273.673,152,256,152z"
         id="path14"
         style="fill:#0088aa" /></g></g><g
     id="g24"
     style="fill:#0088aa"><g
       id="g22"
       style="fill:#0088aa"><path
         d="M477.656,338.344l-24-24c-1.5-1.5-3.534-2.344-5.656-2.344h-64c-2.122,0-4.156,0.844-5.656,2.344l-24,24    c-1.5,1.5-2.344,3.534-2.344,5.656v128c0,4.418,3.582,8,8,8h112c4.418,0,8-3.582,8-8V344    C480,341.878,479.156,339.844,477.656,338.344z M464,464h-40V344h-16v120h-40V347.312l16-16l18.344,18.344L408,344l5.656-5.656    L403.312,328h26.008l-10.808,10.168L424,344l5.488,5.832l19.072-17.96l15.44,15.44V464z"
         id="path20"
         style="fill:#0088aa" /></g></g><g
     id="g30"
     style="fill:#0088aa"><g
       id="g28"
       style="fill:#0088aa"><path
         d="M424,176h-15.736c-22.02,0.044-39.881,17.844-40,39.864l-0.128,40.056c-0.088,26.465,21.294,47.991,47.76,48.08    c0.053,0,0.107,0,0.16,0c26.457-0.031,47.9-21.463,47.944-47.92V216C463.974,193.92,446.08,176.026,424,176z M384.264,215.92    C384.307,202.799,394.88,192.144,408,192c0.001,13.152-10.584,23.855-23.736,24V215.92z M448,256.056    c-0.031,17.62-14.3,31.9-31.92,31.944c-17.629,0-31.92-14.291-31.92-31.92c0-0.027,0-0.053,0-0.08l0.08-24    c12.506-0.075,24.257-5.995,31.76-16c7.554,10.072,19.41,16,32,16V256.056z M424,192c13.255,0,24,10.745,24,24    C434.745,216,424,205.255,424,192z"
         id="path26"
         style="fill:#0088aa" /></g></g><path
     d="m 125.656,338.344 -24,-24 C 100.156,312.844 98.122,312 96,312 H 32 c -2.122,0 -4.156,0.844 -5.656,2.344 l -24,24 C 0.844,339.844 0,341.878 0,344 v 128 c 0,4.418 3.582,8 8,8 h 112 c 4.418,0 8,-3.582 8,-8 V 344 c 0,-2.122 -0.844,-4.156 -2.344,-5.656 z M 112,464 H 72 V 344 H 56 V 464 H 16 V 347.312 l 16,-16 18.344,18.344 L 56,344 61.656,338.344 51.312,328 H 77.32 L 66.512,338.168 72,344 l 5.488,5.832 19.072,-17.96 15.44,15.44 z"
     id="path32"
     inkscape:connector-curvature="0"
     style="fill:#0088aa" /><g
     id="g42"
     style="fill:#0088aa"><g
       id="g40"
       style="fill:#0088aa"><path
         d="M72,176H56.264c-22.02,0.044-39.881,17.844-40,39.864l-0.128,40.056c-0.088,26.465,21.294,47.991,47.76,48.08    c0.053,0,0.107,0,0.16,0c26.457-0.031,47.9-21.463,47.944-47.92V216C111.974,193.92,94.08,176.026,72,176z M72,192    c10.134,0.042,19.15,6.445,22.528,16H80c-10.134-0.042-19.15-6.445-22.528-16H72z M40,198.464v1.464    c0.01,2.129-0.841,4.172-2.36,5.664c-1.04,1.012-2.347,1.706-3.768,2C35.181,204.116,37.279,200.992,40,198.464z M96,256.08    c-0.044,17.611-14.309,31.876-31.92,31.92c-17.629,0-31.92-14.291-31.92-31.92c0-0.027,0-0.053,0-0.08l0.104-32.064    c6.263-0.035,12.26-2.539,16.688-6.968c1.265-1.281,2.383-2.697,3.336-4.224C59.711,219.955,69.651,223.992,80,224h16V256.08z"
         id="path38"
         style="fill:#0088aa" /></g></g><g
     id="g44" /><g
     id="g46" /><g
     id="g48" /><g
     id="g50" /><g
     id="g52" /><g
     id="g54" /><g
     id="g56" /><g
     id="g58" /><g
     id="g60" /><g
     id="g62" /><g
     id="g64" /><g
     id="g66" /><g
     id="g68" /><g
     id="g70" /><g
     id="g72" /></svg>
